<?xml version="1.0" encoding="UTF-8"?>
<svg version="1.1" xmlns="http://www.w3.org/2000/svg" width="373" height="373">
<path d="M0 0 C0.94359375 0.25652344 1.8871875 0.51304688 2.859375 0.77734375 C18.69029355 5.55532823 31.95241853 14.79819361 43 27 C43.58007812 27.61359375 44.16015625 28.2271875 44.7578125 28.859375 C48.8015102 33.56134907 49.60149553 36.91921356 49.2109375 43.09375 C49.14132813 43.7228125 49.07171875 44.351875 49 45 C50.175625 45.185625 50.175625 45.185625 51.375 45.375 C54 46 54 46 56 48 C64.35976199 69.83671162 63.58300294 93.92895637 54.61328125 115.3046875 C48.1952285 129.12548055 38.17607454 139.20393473 27.4375 149.6875 C24.86988725 152.20838815 22.30668001 154.73369476 19.74609375 157.26171875 C19.13618088 157.86299591 18.52626801 158.46427307 17.89787292 159.08377075 C14.30776284 162.64221479 10.89389624 166.28203229 7.62670898 170.1418457 C4.22103977 174.03206758 0.48637626 177.61549752 -3.1875 181.25 C-3.98091797 182.03890625 -4.77433594 182.8278125 -5.59179688 183.640625 C-7.06157415 185.10176379 -8.53238605 186.56186323 -10.00463867 188.02050781 C-11.37919501 189.38413228 -12.72311915 190.77910313 -14.0402832 192.19824219 C-16.88509718 194.81375573 -19.20270203 194.86676147 -23 195 C-27.70214487 193.74465893 -30.14331778 190.96560613 -33.18359375 187.37109375 C-45.16913679 172.63919815 -45.16913679 172.63919815 -62.00854492 166.04248047 C-65.605283 166.14833136 -69.15401922 166.39389286 -72.72802734 166.81103516 C-82.92470972 167.65911512 -94.1229978 161.69122127 -101.98828125 155.73828125 C-112.22520735 146.9143003 -118.12710432 136.19571506 -121 123 C-121.24101714 119.66958129 -121.23092398 116.33830367 -121.25 113 C-121.270625 112.09765625 -121.29125 111.1953125 -121.3125 110.265625 C-121.31765625 109.39421875 -121.3228125 108.5228125 -121.328125 107.625 C-121.3374707 106.83351563 -121.34681641 106.04203125 -121.35644531 105.2265625 C-120.91003455 102.43802404 -119.89500419 101.06236347 -118 99 C-116.0625 98.50390625 -116.0625 98.50390625 -114 98.5625 C-112.9790625 98.56443359 -112.9790625 98.56443359 -111.9375 98.56640625 C-109.35562905 99.14420398 -108.54754321 99.85063443 -107 102 C-106.2265625 104.8203125 -106.2265625 104.8203125 -105.625 108.125 C-103.37820818 118.54826104 -98.72169946 126.35882656 -89.8671875 132.47265625 C-76.90857239 140.21621894 -60.8143236 139.54801747 -46.53076172 136.04956055 C-17.20430468 127.92429188 9.84707208 106.50242625 26 81 C25.37351563 80.97421875 24.74703125 80.9484375 24.1015625 80.921875 C22.87566406 80.83679688 22.87566406 80.83679688 21.625 80.75 C20.81289062 80.70359375 20.00078125 80.6571875 19.1640625 80.609375 C17 80 17 80 15.78125 78.30078125 C14.89752268 75.6982043 14.38563871 73.13813149 13.875 70.4375 C11.49620547 60.69633641 5.84917747 53.47548244 -2.62890625 48.21875 C-12.77036537 43.0060066 -23.5114471 41.79700976 -34.625 45.06640625 C-45.06663049 49.95426134 -51.77554147 57.33913471 -56 68 C-58.7450976 76.20009925 -58.15401593 87.92546474 -54.4609375 95.69140625 C-49.90023799 102.89828702 -44.03701266 108.30865823 -37 113 C-35.49065783 116.01868434 -35.82489328 118.67297229 -36 122 C-39.37509653 127.06264479 -45.15159767 127.37218888 -50.87109375 128.6328125 C-64.15714204 131.13828243 -77.51489405 131.44452582 -89.12109375 123.63671875 C-99.61176009 114.49827967 -103.76733034 100.37701866 -105 87 C-105.2717356 82.24919107 -105.38577639 77.50794139 -105.4375 72.75 C-105.45973633 71.55906738 -105.48197266 70.36813477 -105.50488281 69.14111328 C-105.50198242 68.01688965 -105.49908203 66.89266602 -105.49609375 65.734375 C-105.49794678 64.72600586 -105.4997998 63.71763672 -105.50170898 62.67871094 C-104.87043177 59.30821285 -103.52911015 58.22749821 -101 56 C-99.88936558 53.58483169 -99.88936558 53.58483169 -99.125 50.9375 C-91.88454073 29.8335257 -76.40562212 14.80091863 -56.89453125 4.83203125 C-40.26382624 -3.27476635 -17.87481858 -5.0453117 0 0 Z " fill="#FEFAF8" transform="translate(204,40)"/>
<path d="M0 0 C0.93871948 -0.00570007 1.87743896 -0.01140015 2.84460449 -0.01727295 C4.83161296 -0.02670508 6.81863695 -0.03324982 8.80566406 -0.03710938 C11.80562736 -0.04675246 14.80488662 -0.07776696 17.8046875 -0.109375 C42.2208749 -0.24496401 42.2208749 -0.24496401 50.59375 5.390625 C52.91803187 9.126078 53.12137127 11.82967661 53.34375 16.203125 C54.00375 16.203125 54.66375 16.203125 55.34375 16.203125 C55.52550781 15.61144531 55.70726562 15.01976562 55.89453125 14.41015625 C58.78147242 5.3347976 58.78147242 5.3347976 61.34375 2.203125 C66.27745975 -0.32109859 70.08527097 0.10054069 75.34375 1.203125 C77.84375 2.765625 77.84375 2.765625 79.34375 4.203125 C79.75109375 3.72617188 80.1584375 3.24921875 80.578125 2.7578125 C83.68202657 0.02473103 87.33625787 0.1031044 91.34375 0.203125 C95.70414984 1.4183184 98.26407804 2.67647617 100.78125 6.390625 C101.296875 7.31875 101.8125 8.246875 102.34375 9.203125 C102.776875 8.254375 103.21 7.305625 103.65625 6.328125 C105.34375 3.203125 105.34375 3.203125 108.34375 1.203125 C115.79506561 -0.20010249 123.34919839 0.05537422 130.90625 0.078125 C132.19466797 0.07425781 133.48308594 0.07039062 134.81054688 0.06640625 C136.06029297 0.06769531 137.31003906 0.06898438 138.59765625 0.0703125 C139.72502197 0.07144043 140.8523877 0.07256836 142.01391602 0.07373047 C145.34375 0.203125 145.34375 0.203125 149.04663086 0.74658203 C152.38125079 1.37218959 152.38125079 1.37218959 155.84375 0.640625 C159.97937123 0.12367235 162.52242686 0.5547111 166.34375 2.203125 C168.13521771 5.62651589 168.58605543 8.45523234 168.5390625 12.28515625 C168.52939453 13.68217773 168.52939453 13.68217773 168.51953125 15.10742188 C168.49439453 16.54698242 168.49439453 16.54698242 168.46875 18.015625 C168.45972656 18.99466797 168.45070312 19.97371094 168.44140625 20.98242188 C168.41792182 23.38957561 168.3850784 25.79622243 168.34375 28.203125 C169.10300781 28.16832031 169.86226562 28.13351562 170.64453125 28.09765625 C172.13533203 28.05705078 172.13533203 28.05705078 173.65625 28.015625 C174.64238281 27.98082031 175.62851562 27.94601562 176.64453125 27.91015625 C179.34375 28.203125 179.34375 28.203125 181.13671875 29.52734375 C183.78881345 33.20937814 183.57404411 36.82753697 183.34375 41.203125 C182.49430544 43.82224571 181.93591659 44.83324234 179.604599 46.28944397 C176.90749512 47.37942948 174.82764008 47.47706449 171.92016602 47.50952148 C170.83546524 47.52550888 169.75076447 47.54149628 168.63319397 47.55796814 C166.8831028 47.56601219 166.8831028 47.56601219 165.09765625 47.57421875 C163.89439194 47.58324722 162.69112762 47.5922757 161.45140076 47.60157776 C158.90699758 47.61608339 156.36255708 47.62496776 153.81811523 47.62866211 C149.92432996 47.64056971 146.03212325 47.68976599 142.13867188 47.74023438 C139.66667441 47.74969719 137.1946672 47.7569329 134.72265625 47.76171875 C132.97560143 47.79101723 132.97560143 47.79101723 131.19325256 47.82090759 C123.12948816 47.77585613 123.12948816 47.77585613 119.11425781 44.84912109 C117.0934623 41.82907397 116.66165669 39.9985433 116.53125 36.390625 C116.45970703 34.92689453 116.45970703 34.92689453 116.38671875 33.43359375 C116.37253906 32.69753906 116.35835937 31.96148437 116.34375 31.203125 C116.01761719 32.03457031 115.69148437 32.86601562 115.35546875 33.72265625 C114.91847656 34.80933594 114.48148438 35.89601563 114.03125 37.015625 C113.38736328 38.63404297 113.38736328 38.63404297 112.73046875 40.28515625 C111.47379321 42.92948478 110.62795704 44.43565374 108.34375 46.203125 C103.68441514 47.75623662 99.73721745 47.68547912 95.09375 46.078125 C94.18625 45.789375 93.27875 45.500625 92.34375 45.203125 C91.35375 45.863125 90.36375 46.523125 89.34375 47.203125 C84.79428445 47.79686881 80.62079199 47.70862079 76.34375 46.015625 C74.02678967 43.9158797 73.22781273 42.17679055 72.34375 39.203125 C70.36375 39.203125 68.38375 39.203125 66.34375 39.203125 C66.116875 39.96625 65.89 40.729375 65.65625 41.515625 C63.96395531 44.98079984 62.87591605 45.63629237 59.34375 47.203125 C55.98127214 47.61135979 52.66397884 47.57659704 49.28125 47.515625 C47.93450195 47.52045898 47.93450195 47.52045898 46.56054688 47.52539062 C42.20603168 47.48977749 39.19069641 47.40647082 35.34375 45.203125 C35.34375 44.543125 35.34375 43.883125 35.34375 43.203125 C34.374375 43.863125 33.405 44.523125 32.40625 45.203125 C28.15098185 47.64212016 24.1561148 47.96812199 19.34375 47.203125 C17.19921875 46.5546875 17.19921875 46.5546875 15.34375 45.203125 C12.72242142 39.97695417 13.11301814 34.52951243 13.21875 28.828125 C13.22777344 27.90128906 13.23679687 26.97445313 13.24609375 26.01953125 C13.26952063 23.74712423 13.30232252 21.4752632 13.34375 19.203125 C12.68375 19.203125 12.02375 19.203125 11.34375 19.203125 C11.35946045 19.87891602 11.3751709 20.55470703 11.39135742 21.25097656 C11.45378867 24.31827397 11.49276647 27.38543759 11.53125 30.453125 C11.55638672 31.51660156 11.58152344 32.58007812 11.60742188 33.67578125 C11.61708984 34.70058594 11.62675781 35.72539062 11.63671875 36.78125 C11.6524292 37.72387695 11.66813965 38.66650391 11.68432617 39.63769531 C11.27972761 42.68538108 10.46864009 44.00892813 8.34375 46.203125 C3.4133072 47.84660593 -0.92013569 48.01577425 -5.59375 45.828125 C-7.65625 44.203125 -7.65625 44.203125 -8.65625 42.203125 C-8.80847973 40.53746751 -8.90542215 38.86656004 -8.97265625 37.1953125 C-9.01455078 36.20917969 -9.05644531 35.22304688 -9.09960938 34.20703125 C-9.13892578 33.17449219 -9.17824219 32.14195312 -9.21875 31.078125 C-9.26193359 30.03785156 -9.30511719 28.99757813 -9.34960938 27.92578125 C-9.4558788 25.35169972 -9.55791583 22.77751992 -9.65625 20.203125 C-11.3578125 19.77 -11.3578125 19.77 -13.09375 19.328125 C-14.269375 18.956875 -15.445 18.585625 -16.65625 18.203125 C-18.00906371 15.49749757 -17.86234362 13.28418845 -17.90625 10.265625 C-17.93203125 9.20472656 -17.9578125 8.14382812 -17.984375 7.05078125 C-17.65625 4.203125 -17.65625 4.203125 -16.453125 2.38671875 C-11.74208257 -0.71642442 -5.42905937 0.02575501 0 0 Z " fill="#F8F9FA" transform="translate(85.65625,243.796875)"/>
<path d="M0 0 C0 0.66 0 1.32 0 2 C1.65 2 3.3 2 5 2 C5.495 2.99 5.495 2.99 6 4 C8.30965848 5.05352843 10.6429774 6.05719096 13 7 C13 7.66 13 8.32 13 9 C14.32 9 15.64 9 17 9 C18.75 10.375 18.75 10.375 20 12 C20 12.66 20 13.32 20 14 C20.99 14 21.98 14 23 14 C23 14.66 23 15.32 23 16 C23.66 16 24.32 16 25 16 C27.625 18.375 27.625 18.375 30 21 C30 21.66 30 22.32 30 23 C30.66 23 31.32 23 32 23 C32 23.99 32 24.98 32 26 C32.66 26 33.32 26 34 26 C34 26.66 34 27.32 34 28 C34.66 28 35.32 28 36 28 C37.68870844 31.57608847 38.1397368 33.25515051 37 37 C36.75121094 37.85078125 36.50242188 38.7015625 36.24609375 39.578125 C35.97925781 40.45984375 35.71242187 41.3415625 35.4375 42.25 C35.03337891 43.58804688 35.03337891 43.58804688 34.62109375 44.953125 C34.31365234 45.96632813 34.31365234 45.96632813 34 47 C33.34 47 32.68 47 32 47 C32 48.32 32 49.64 32 51 C31.34 51 30.68 51 30 51 C29.9175 51.556875 29.835 52.11375 29.75 52.6875 C28.00883482 58.05609264 22.78465983 63.52191063 17.84375 66.14453125 C17.2353125 66.42683594 16.626875 66.70914063 16 67 C15.85304688 66.21496094 15.70609375 65.42992188 15.5546875 64.62109375 C14.20283755 58.28915291 12.8864084 53.88159654 8.20703125 49.3046875 C7 48 7 48 7 46 C6.360625 45.731875 5.72125 45.46375 5.0625 45.1875 C3 44 3 44 2 41 C0.23408113 39.99083967 0.23408113 39.99083967 -2 39 C-2.94875 38.34 -3.8975 37.68 -4.875 37 C-7.89628671 35.06637651 -10.56787452 33.98060728 -14 33 C-14 32.34 -14 31.68 -14 31 C-18.14682321 31.05233723 -22.29163673 31.14752299 -26.4375 31.25 C-28.18450195 31.27126953 -28.18450195 31.27126953 -29.96679688 31.29296875 C-38.61829552 31.53667294 -44.5446745 33.28806274 -51.875 37.75 C-54 39 -54 39 -57 39 C-57.33 39.99 -57.66 40.98 -58 42 C-58.66 42 -59.32 42 -60 42 C-60.1546875 42.8353125 -60.1546875 42.8353125 -60.3125 43.6875 C-61 46 -61 46 -62.5 48.4375 C-64.01771781 51.03026793 -64.57847139 53.04929976 -65 56 C-65.99 56 -66.98 56 -68 56 C-69.20484722 61.63526965 -69.1129643 67.14536115 -69.0625 72.875 C-69.05798828 73.84953125 -69.05347656 74.8240625 -69.04882812 75.828125 C-69.03710906 78.21881434 -69.02070219 80.6093744 -69 83 C-68.01 83.495 -68.01 83.495 -67 84 C-66.87625 85.051875 -66.7525 86.10375 -66.625 87.1875 C-65.93211217 91.41411574 -64.47323809 93.56937942 -62 97 C-62 97.66 -62 98.32 -62 99 C-61.34 99 -60.68 99 -60 99 C-60 99.99 -60 100.98 -60 102 C-59.34 102 -58.68 102 -58 102 C-58 102.66 -58 103.32 -58 104 C-56.35 104.66 -54.7 105.32 -53 106 C-53 106.66 -53 107.32 -53 108 C-51.35 108 -49.7 108 -48 108 C-48 108.66 -48 109.32 -48 110 C-47.34 110 -46.68 110 -46 110 C-46.33 111.65 -46.66 113.3 -47 115 C-55.46708618 115.92608755 -63.92619886 116.16257274 -72.4375 116.25 C-74.00081055 116.2819043 -74.00081055 116.2819043 -75.59570312 116.31445312 C-82.35369065 116.34499277 -87.01553245 115.8780794 -92.08203125 110.9921875 C-92.93861328 109.94417969 -92.93861328 109.94417969 -93.8125 108.875 C-94.39644531 108.17117187 -94.98039062 107.46734375 -95.58203125 106.7421875 C-96.28392578 105.87980469 -96.28392578 105.87980469 -97 105 C-97.33 104.67 -97.66 104.34 -98 104 C-98.04063832 102.33382885 -98.042721 100.66611905 -98 99 C-98.66 99 -99.32 99 -100 99 C-100.48150942 96.95888458 -100.96010083 94.91708068 -101.4375 92.875 C-101.70433594 91.73804688 -101.97117187 90.60109375 -102.24609375 89.4296875 C-104.54369439 78.97739031 -104.4668117 69.42442033 -102.51171875 58.9140625 C-101.75976141 54.63192378 -101.364022 50.32994591 -101 46 C-100.34 46 -99.68 46 -99 46 C-98.87625 45.443125 -98.7525 44.88625 -98.625 44.3125 C-97.94023145 41.77885636 -97.00866237 39.42078968 -96 37 C-95.34 37 -94.68 37 -94 37 C-93.855625 36.4225 -93.71125 35.845 -93.5625 35.25 C-93.04166667 33.16666667 -92.52083333 31.08333333 -92 29 C-91.34 29 -90.68 29 -90 29 C-89.67 28.01 -89.34 27.02 -89 26 C-88.34 26 -87.68 26 -87 26 C-87 25.01 -87 24.02 -87 23 C-86.34 23 -85.68 23 -85 23 C-85 22.34 -85 21.68 -85 21 C-83.35 20.34 -81.7 19.68 -80 19 C-80 18.01 -80 17.02 -80 16 C-79.34 16 -78.68 16 -78 16 C-78 15.34 -78 14.68 -78 14 C-77.01 13.67 -76.02 13.34 -75 13 C-74.67 12.34 -74.34 11.68 -74 11 C-73.34 11 -72.68 11 -72 11 C-72 10.34 -72 9.68 -72 9 C-70.68 9 -69.36 9 -68 9 C-68 8.34 -68 7.68 -68 7 C-66.68 7 -65.36 7 -64 7 C-64 6.34 -64 5.68 -64 5 C-63.360625 4.87625 -62.72125 4.7525 -62.0625 4.625 C-61.381875 4.41875 -60.70125 4.2125 -60 4 C-59.67 3.34 -59.34 2.68 -59 2 C-57.68 2 -56.36 2 -55 2 C-55 1.34 -55 0.68 -55 0 C-52.36 0 -49.72 0 -47 0 C-47 -0.66 -47 -1.32 -47 -2 C-32.04087705 -4.7770098 -14.57868727 -4.52720788 0 0 Z " fill="#FD7804" transform="translate(210,43)"/>
<path d="M0 0 C1.4540625 0.0309375 1.4540625 0.0309375 2.9375 0.0625 C2.9375 2.7025 2.9375 5.3425 2.9375 8.0625 C3.5975 8.0625 4.2575 8.0625 4.9375 8.0625 C6.36248902 25.31504569 7.68697487 41.7170326 0.9375 58.0625 C0.2775 58.0625 -0.3825 58.0625 -1.0625 58.0625 C-0.93875 59.031875 -0.815 60.00125 -0.6875 61 C-0.65554273 66.20903572 -3.71853688 70.2710479 -7.0625 74.0625 C-8.0525 74.3925 -9.0425 74.7225 -10.0625 75.0625 C-11.77476052 77.8826938 -12.8684395 80.99205871 -14.0625 84.0625 C-15.0525 84.0625 -16.0425 84.0625 -17.0625 84.0625 C-17.289375 84.59875 -17.51625 85.135 -17.75 85.6875 C-20.55344878 90.76040732 -24.33666462 94.7416427 -29.0625 98.0625 C-29.7225 98.0625 -30.3825 98.0625 -31.0625 98.0625 C-31.42504883 98.91183105 -31.42504883 98.91183105 -31.79492188 99.77832031 C-33.31345817 102.5147274 -35.13401881 104.39319338 -37.34375 106.609375 C-38.18550781 107.45371094 -39.02726562 108.29804688 -39.89453125 109.16796875 C-40.77496094 110.04066406 -41.65539062 110.91335937 -42.5625 111.8125 C-43.44292969 112.70066406 -44.32335937 113.58882813 -45.23046875 114.50390625 C-46.07222656 115.34308594 -46.91398437 116.18226563 -47.78125 117.046875 C-48.55404297 117.81741211 -49.32683594 118.58794922 -50.12304688 119.38183594 C-52.0625 121.0625 -52.0625 121.0625 -54.0625 121.0625 C-54.2790625 121.60777344 -54.495625 122.15304688 -54.71875 122.71484375 C-56.51387736 125.85109824 -58.9757246 128.14851348 -61.5625 130.625 C-64.34621756 133.31161113 -66.90143222 135.82089833 -69.0625 139.0625 C-73.70475091 138.59276375 -75.65413599 136.93576624 -78.85546875 133.625 C-79.73267578 132.73039063 -80.60988281 131.83578125 -81.51367188 130.9140625 C-82.8681543 129.50253906 -82.8681543 129.50253906 -84.25 128.0625 C-86.05398923 126.20638705 -87.85988183 124.35212151 -89.66796875 122.5 C-90.46356201 121.67371094 -91.25915527 120.84742188 -92.07885742 119.99609375 C-93.91642161 118.00883835 -93.91642161 118.00883835 -96.0625 117.0625 C-96.0625 116.4025 -96.0625 115.7425 -96.0625 115.0625 C-96.7225 115.0625 -97.3825 115.0625 -98.0625 115.0625 C-98.0625 114.0725 -98.0625 113.0825 -98.0625 112.0625 C-99.32964844 112.07410156 -100.59679687 112.08570313 -101.90234375 112.09765625 C-103.60156101 112.10704419 -105.30077989 112.11614331 -107 112.125 C-108.24620117 112.13756836 -108.24620117 112.13756836 -109.51757812 112.15039062 C-118.42975712 112.18506836 -126.12205247 111.44004935 -134.4375 108.125 C-135.13488281 107.86009766 -135.83226562 107.59519531 -136.55078125 107.32226562 C-139.64249907 106.12652447 -142.29406013 104.90812658 -145.0625 103.0625 C-145.0625 102.4025 -145.0625 101.7425 -145.0625 101.0625 C-145.660625 100.794375 -146.25875 100.52625 -146.875 100.25 C-150.5212987 98.27058071 -151.77948039 96.82218421 -153.25 92.875 C-153.518125 91.946875 -153.78625 91.01875 -154.0625 90.0625 C-154.7225 90.0625 -155.3825 90.0625 -156.0625 90.0625 C-157.07893473 87.88140048 -158.07538256 85.69433538 -159.0625 83.5 C-159.34867187 82.89091797 -159.63484375 82.28183594 -159.9296875 81.65429688 C-161.870144 77.28826975 -162.35588657 73.81169505 -162.0625 69.0625 C-159.54434818 70.32157591 -159.36989574 71.27724667 -158.25 73.8125 C-156.43001749 77.64476507 -154.15764559 80.13930694 -151.0625 83.0625 C-151.0625 83.7225 -151.0625 84.3825 -151.0625 85.0625 C-150.0725 85.3925 -149.0825 85.7225 -148.0625 86.0625 C-148.0625 86.7225 -148.0625 87.3825 -148.0625 88.0625 C-146.6084375 88.248125 -146.6084375 88.248125 -145.125 88.4375 C-144.114375 88.64375 -143.10375 88.85 -142.0625 89.0625 C-141.5675 90.0525 -141.5675 90.0525 -141.0625 91.0625 C-135.94546551 93.07654936 -130.50705793 94.3461108 -125.0625 95.0625 C-125.0625 95.7225 -125.0625 96.3825 -125.0625 97.0625 C-115.78863908 96.74460169 -106.61160267 96.19635008 -97.4375 94.75 C-96.7170752 94.64453857 -95.99665039 94.53907715 -95.25439453 94.43041992 C-90.64582755 93.65092778 -87.01039313 92.17218514 -82.89697266 89.97387695 C-80.50577108 88.78591375 -78.18807238 88.2500954 -75.5625 87.8125 C-74.7065625 87.66296875 -73.850625 87.5134375 -72.96875 87.359375 C-72.3396875 87.26140625 -71.710625 87.1634375 -71.0625 87.0625 C-71.0625 86.4025 -71.0625 85.7425 -71.0625 85.0625 C-69.99 84.44375 -68.9175 83.825 -67.8125 83.1875 C-66.85730469 82.63255859 -66.85730469 82.63255859 -65.8828125 82.06640625 C-64.0625 81.0625 -64.0625 81.0625 -61.6875 80.125 C-59.77056954 79.1246354 -59.77056954 79.1246354 -59.3125 76.4375 C-59.23 75.65375 -59.1475 74.87 -59.0625 74.0625 C-58.0725 74.0625 -57.0825 74.0625 -56.0625 74.0625 C-56.0625 73.4025 -56.0625 72.7425 -56.0625 72.0625 C-54.7425 72.0625 -53.4225 72.0625 -52.0625 72.0625 C-52.0625 71.4025 -52.0625 70.7425 -52.0625 70.0625 C-50.4125 69.4025 -48.7625 68.7425 -47.0625 68.0625 C-47.0625 67.0725 -47.0625 66.0825 -47.0625 65.0625 C-45.7425 65.0625 -44.4225 65.0625 -43.0625 65.0625 C-43.0625 64.4025 -43.0625 63.7425 -43.0625 63.0625 C-42.4025 63.0625 -41.7425 63.0625 -41.0625 63.0625 C-41.0625 62.4025 -41.0625 61.7425 -41.0625 61.0625 C-38.6875 58.4375 -38.6875 58.4375 -36.0625 56.0625 C-35.4025 56.0625 -34.7425 56.0625 -34.0625 56.0625 C-34.0625 55.4025 -34.0625 54.7425 -34.0625 54.0625 C-31.6875 51.4375 -31.6875 51.4375 -29.0625 49.0625 C-28.4025 49.0625 -27.7425 49.0625 -27.0625 49.0625 C-26.876875 48.1653125 -26.876875 48.1653125 -26.6875 47.25 C-26.0625 45.0625 -26.0625 45.0625 -24.0625 42.0625 C-23.4025 42.0625 -22.7425 42.0625 -22.0625 42.0625 C-22.0625 41.4025 -22.0625 40.7425 -22.0625 40.0625 C-21.4025 40.0625 -20.7425 40.0625 -20.0625 40.0625 C-19.91941406 39.22332031 -19.91941406 39.22332031 -19.7734375 38.3671875 C-18.89031182 35.50430754 -17.4649712 33.59496099 -15.6875 31.1875 C-11.99542503 26.03523964 -8.99934976 21.4330784 -8.0625 15.0625 C-7.4025 15.0625 -6.7425 15.0625 -6.0625 15.0625 C-5.15525306 11.0446921 -4.7233216 7.04707583 -4.34375 2.953125 C-3.86764353 -0.24736846 -3.347876 0.068324 0 0 Z " fill="#FD7704" transform="translate(253.0625,85.9375)"/>
<path d="M0 0 C1.828125 0.5078125 1.828125 0.5078125 4 2 C11.87327422 19.859901 12.25263186 44.22271031 5.48046875 62.4453125 C-1.55398847 79.33543405 -11.64854653 91.08021459 -24.5625 103.6875 C-27.13011275 106.20838815 -29.69331999 108.73369476 -32.25390625 111.26171875 C-33.16877556 112.16363449 -33.16877556 112.16363449 -34.10212708 113.08377075 C-37.69223716 116.64221479 -41.10610376 120.28203229 -44.37329102 124.1418457 C-47.77896023 128.03206758 -51.51362374 131.61549752 -55.1875 135.25 C-55.98091797 136.03890625 -56.77433594 136.8278125 -57.59179688 137.640625 C-59.06157415 139.10176379 -60.53238605 140.56186323 -62.00463867 142.02050781 C-63.37919501 143.38413228 -64.72311915 144.77910313 -66.0402832 146.19824219 C-68.88509718 148.81375573 -71.20270203 148.86676147 -75 149 C-79.70214487 147.74465893 -82.14331778 144.96560613 -85.18359375 141.37109375 C-97.16913679 126.63919815 -97.16913679 126.63919815 -114.00854492 120.04248047 C-117.605283 120.14833136 -121.15401922 120.39389286 -124.72802734 120.81103516 C-134.92470972 121.65911512 -146.1229978 115.69122127 -153.98828125 109.73828125 C-164.15947307 100.97096164 -172.08446683 88.51677583 -173.17700195 74.7734375 C-173.24320767 72.18218286 -173.28472904 69.59195614 -173.3125 67 C-173.34150391 66.09765625 -173.37050781 65.1953125 -173.40039062 64.265625 C-173.46444767 57.60369214 -173.46444767 57.60369214 -170.98046875 54.375 C-170.00013672 53.694375 -170.00013672 53.694375 -169 53 C-168.15808218 55.9248633 -167.88180687 58.50741656 -167.90234375 61.546875 C-167.90717773 62.81337891 -167.90717773 62.81337891 -167.91210938 64.10546875 C-167.92048828 64.97816406 -167.92886719 65.85085937 -167.9375 66.75 C-167.94201172 67.63816406 -167.94652344 68.52632813 -167.95117188 69.44140625 C-167.962926 71.62767329 -167.97935751 73.81380179 -168 76 C-167.34 76 -166.68 76 -166 76 C-166 78.31 -166 80.62 -166 83 C-165.01 83 -164.02 83 -163 83 C-162.5875 84.0725 -162.175 85.145 -161.75 86.25 C-160.3568736 89.55617557 -158.58556606 91.50359139 -156 94 C-156 94.99 -156 95.98 -156 97 C-155.40445313 97.10699219 -154.80890625 97.21398437 -154.1953125 97.32421875 C-151.71098286 98.08896791 -150.7035883 98.99769503 -148.875 100.8125 C-144.73380285 104.52621874 -140.21104828 106.2280825 -135 108 C-134.09628662 108.33467285 -133.19257324 108.6693457 -132.26147461 109.01416016 C-128.85213652 110.04469442 -125.838974 110.40483653 -122.2890625 110.6328125 C-120.42314453 110.75849609 -120.42314453 110.75849609 -118.51953125 110.88671875 C-117.23433594 110.96535156 -115.94914062 111.04398437 -114.625 111.125 C-112.66240234 111.25455078 -112.66240234 111.25455078 -110.66015625 111.38671875 C-107.44049456 111.59822937 -104.22054094 111.80240911 -101 112 C-101 112.99 -101 113.98 -101 115 C-100.34 115 -99.68 115 -99 115 C-99 115.66 -99 116.32 -99 117 C-98.43087891 117.24024902 -97.86175781 117.48049805 -97.27539062 117.72802734 C-94.53881764 119.25780688 -92.75787248 121.08369984 -90.59375 123.3515625 C-89.76746094 124.20234375 -88.94117188 125.053125 -88.08984375 125.9296875 C-86.35937405 127.73062882 -84.63282111 129.53534164 -82.91015625 131.34375 C-82.08386719 132.19195312 -81.25757813 133.04015625 -80.40625 133.9140625 C-79.28186523 135.0889624 -79.28186523 135.0889624 -78.13476562 136.28759766 C-75.9360839 138.41714477 -75.9360839 138.41714477 -72 138 C-70.23154712 136.49707937 -70.23154712 136.49707937 -68.6875 134.4375 C-65.3346671 130.37389525 -61.7588471 126.68433251 -58 123 C-56.33180487 121.33483796 -54.66550187 119.66785206 -53 118 C-51.58341952 116.58324715 -50.16674375 115.16658958 -48.75 113.75 C-47.9765625 112.9765625 -47.203125 112.203125 -46.40625 111.40625 C-39.25 104.25 -39.25 104.25 -37.00976562 102.01220703 C-35.80720163 100.80818219 -34.60710763 99.60167093 -33.41210938 98.39013672 C-31.51113771 96.46452282 -29.67131015 94.75348261 -27.5 93.125 C-24.76592078 90.80103267 -23.1015257 88.41049071 -21.2109375 85.390625 C-20.81132812 84.93171875 -20.41171875 84.4728125 -20 84 C-19.01 84 -18.02 84 -17 84 C-16.6596875 82.6696875 -16.6596875 82.6696875 -16.3125 81.3125 C-14.79804372 77.49030082 -12.92404483 75.85604379 -10 73 C-6.29648846 68.1307592 -4.38237978 64.11807656 -4 58 C-3.34 58 -2.68 58 -2 58 C3.55017218 41.77070188 2.38887961 24.90579301 2 8 C1.34 8 0.68 8 0 8 C0 5.36 0 2.72 0 0 Z " fill="#FEF9F5" transform="translate(256,86)"/>
<path d="M0 0 C3.14581423 -0.02888514 6.29159469 -0.04675923 9.4375 -0.0625 C10.33533203 -0.07087891 11.23316406 -0.07925781 12.15820312 -0.08789062 C13.01220703 -0.09111328 13.86621094 -0.09433594 14.74609375 -0.09765625 C15.93223267 -0.10551147 15.93223267 -0.10551147 17.14233398 -0.11352539 C19 0 19 0 20 1 C22.32817964 1.36760731 24.6618385 1.70241581 27 2 C29.43436079 7.81770968 31.38717509 13.82986986 29 20 C26.94140625 21.25390625 26.94140625 21.25390625 25 22 C25 23.65 25 25.3 25 27 C25.66 27 26.32 27 27 27 C28.70680947 28.62553283 30.37660195 30.29115995 32 32 C32 31.34 32 30.68 32 30 C32.639375 29.4225 33.27875 28.845 33.9375 28.25 C36.44350418 25.51617726 36.66980509 23.63214398 37 20 C37.66 20 38.32 20 39 20 C40.485 14.555 40.485 14.555 42 9 C42.66 9 43.32 9 44 9 C44 7.35 44 5.7 44 4 C44.66 4 45.32 4 46 4 C46.33 2.68 46.66 1.36 47 0 C53.0546875 -0.1953125 53.0546875 -0.1953125 55 0 C57 2 57 2 57.5 4.0625 C57.7475 5.0215625 57.7475 5.0215625 58 6 C58.66 6.33 59.32 6.66 60 7 C60 8.98 60 10.96 60 13 C60.66 13 61.32 13 62 13 C62 14.65 62 16.3 62 18 C62.66 18 63.32 18 64 18 C64 19.65 64 21.3 64 23 C65.485 23.495 65.485 23.495 67 24 C67 25.65 67 27.3 67 29 C67.66 29 68.32 29 69 29 C69 31.31 69 33.62 69 36 C66.36 36 63.72 36 61 36 C60.34 33.36 59.68 30.72 59 28 C53.39 28 47.78 28 42 28 C42 30.64 42 33.28 42 36 C38.7 36 35.4 36 32 36 C32 36.66 32 37.32 32 38 C30.68 38 29.36 38 28 38 C28 37.34 28 36.68 28 36 C25.69 36 23.38 36 21 36 C20.71125 35.2575 20.4225 34.515 20.125 33.75 C19.75375 32.8425 19.3825 31.935 19 31 C18.7525 30.2575 18.505 29.515 18.25 28.75 C17.03720825 26.64779328 17.03720825 26.64779328 13.875 26.25 C12.92625 26.1675 11.9775 26.085 11 26 C11 29.3 11 32.6 11 36 C3.28515625 36.09765625 3.28515625 36.09765625 1 36 C0 35 0 35 -0.11352539 31.67358398 C-0.11336629 30.19774444 -0.10767314 28.72189931 -0.09765625 27.24609375 C-0.09553383 26.08292381 -0.09553383 26.08292381 -0.09336853 24.89625549 C-0.08775345 22.40996506 -0.07519846 19.9237634 -0.0625 17.4375 C-0.05748694 15.75586067 -0.0529237 14.07421994 -0.04882812 12.39257812 C-0.03777913 8.26168434 -0.02050445 4.13085724 0 0 Z " fill="#5982AA" transform="translate(104,246)"/>
<path d="M0 0 C7 0 7 0 8.8515625 1.1171875 C10.43405639 3.71161625 10.83159157 6.13978224 11.375 9.125 C13.62179182 19.54826104 18.27830054 27.35882656 27.1328125 33.47265625 C39.02828797 40.58092818 53.57697043 40.737515 66.80297852 37.56396484 C68.25271233 37.19182515 69.70116373 36.81464861 71.14819336 36.43212891 C76.30425635 35.08113686 80.70259753 34.61473437 86 35 C86 34.34 86 33.68 86 33 C87.65 33 89.3 33 91 33 C91 32.34 91 31.68 91 31 C92.32 31 93.64 31 95 31 C95 30.01 95 29.02 95 28 C96.65 28 98.3 28 100 28 C100 27.34 100 26.68 100 26 C101.32 26 102.64 26 104 26 C104 25.34 104 24.68 104 24 C104.99 24 105.98 24 107 24 C105.76834557 27.69496329 104.11775079 28.35395945 100.7890625 30.1484375 C98.8861106 31.05420937 97.08414724 31.66653644 95 32 C95 32.66 95 33.32 95 34 C94.3709375 34.17015625 93.741875 34.3403125 93.09375 34.515625 C92.2378125 34.75796875 91.381875 35.0003125 90.5 35.25 C89.24703125 35.59804687 89.24703125 35.59804687 87.96875 35.953125 C85.50983592 36.82021576 83.46424302 37.78104611 81.1796875 39 C77.06339396 41.10371102 73.1747661 42.05954679 68.625 42.75 C67.86203613 42.87286377 67.09907227 42.99572754 66.31298828 43.12231445 C57.88509877 44.3571543 49.49398603 44.27108466 41 44 C41 43.34 41 42.68 41 42 C39.91332031 41.94392578 39.91332031 41.94392578 38.8046875 41.88671875 C33.13808848 41.50139002 28.85096382 41.015464 24 38 C24 37.34 24 36.68 24 36 C22.63875 35.9071875 22.63875 35.9071875 21.25 35.8125 C17.15417729 34.78854432 16.3928761 33.39634027 14 30 C13.175 29.236875 12.35 28.47375 11.5 27.6875 C8.46777204 24.42785495 6.79318388 21.03716819 5 17 C5.38833853 23.11633191 6.43707785 27.6577336 9.16015625 33.15234375 C10 35 10 35 10 37 C10.66 37 11.32 37 12 37 C13.485 40.465 13.485 40.465 15 44 C14.34 44 13.68 44 13 44 C12.505 42.515 12.505 42.515 12 41 C10.68799596 39.64567325 9.35368596 38.31266518 8 37 C6 34 6 34 6 30 C5.01 30 4.02 30 3 30 C3 27.69 3 25.38 3 23 C2.34 23 1.68 23 1 23 C0.67 15.41 0.34 7.82 0 0 Z " fill="#EF9458" transform="translate(87,139)"/>
<path d="M0 0 C8.91 0 17.82 0 27 0 C26 7 26 7 25 9 C19.72 9 14.44 9 9 9 C9 10.65 9 12.3 9 14 C9.98742187 13.97679687 10.97484375 13.95359375 11.9921875 13.9296875 C13.27351562 13.91164063 14.55484375 13.89359375 15.875 13.875 C17.78925781 13.84019531 17.78925781 13.84019531 19.7421875 13.8046875 C23 14 23 14 25 16 C25 17.98 25 19.96 25 22 C19.39 22 13.78 22 8 22 C8 23.98 8 25.96 8 28 C13.94 28 19.88 28 26 28 C26 30.31 26 32.62 26 35 C17.75 35 9.5 35 1 35 C0.505 17.675 0.505 17.675 0 0 Z " fill="#225894" transform="translate(208,246)"/>
<path d="M0 0 C6.0546875 -0.1953125 6.0546875 -0.1953125 8 0 C10 2 10 2 10.5 4.0625 C10.7475 5.0215625 10.7475 5.0215625 11 6 C11.66 6.33 12.32 6.66 13 7 C13 8.98 13 10.96 13 13 C13.66 13 14.32 13 15 13 C15 14.65 15 16.3 15 18 C15.66 18 16.32 18 17 18 C17 19.65 17 21.3 17 23 C17.99 23.33 18.98 23.66 20 24 C20 25.65 20 27.3 20 29 C20.66 29 21.32 29 22 29 C22 31.31 22 33.62 22 36 C19.36 36 16.72 36 14 36 C13.34 33.36 12.68 30.72 12 28 C6.39 28 0.78 28 -5 28 C-5 29.98 -5 31.96 -5 34 C-6 35 -6 35 -9.5625 35.0625 C-10.696875 35.041875 -11.83125 35.02125 -13 35 C-13 34.01 -13 33.02 -13 32 C-12.34 32 -11.68 32 -11 32 C-10.81244141 31.16662109 -10.81244141 31.16662109 -10.62109375 30.31640625 C-9.93769287 27.76762183 -9.04179635 25.38758859 -8.0625 22.9375 C-7.72347656 22.08027344 -7.38445312 21.22304688 -7.03515625 20.33984375 C-6 18 -6 18 -4 15 C-3.54227937 12.26127045 -3.54227937 12.26127045 -3.375 9.3125 C-3.30023438 8.31863281 -3.22546875 7.32476562 -3.1484375 6.30078125 C-3.09945312 5.54152344 -3.05046875 4.78226563 -3 4 C-2.34 4 -1.68 4 -1 4 C-0.67 2.68 -0.34 1.36 0 0 Z " fill="#235B95" transform="translate(151,246)"/>
<path d="M0 0 C1.60332791 -0.08121924 3.20784026 -0.13929134 4.8125 -0.1875 C6.15248047 -0.23970703 6.15248047 -0.23970703 7.51953125 -0.29296875 C10 0 10 0 11.8125 1.3125 C13.58043356 3.82482663 13.19885058 6.0172413 13 9 C13.66 9 14.32 9 15 9 C16.19287411 12.87684087 17 15.91621923 17 20 C17.99 20 18.98 20 20 20 C20 17.69 20 15.38 20 13 C20.66 12.67 21.32 12.34 22 12 C22.65555119 9.47266765 22.65555119 9.47266765 23 7 C23.66 7 24.32 7 25 7 C24.938125 6.21625 24.87625 5.4325 24.8125 4.625 C24.9053125 3.325625 24.9053125 3.325625 25 2 C28.08888522 -0.05925681 28.70935927 -0.2390374 32.1875 -0.125 C34.0746875 -0.063125 34.0746875 -0.063125 36 0 C36 1.98 36 3.96 36 6 C35.34 6 34.68 6 34 6 C33.814375 7.0209375 33.814375 7.0209375 33.625 8.0625 C32.90899123 11.4277412 31.97054875 14.70013425 31 18 C30.01 18 29.02 18 28 18 C27.7834375 19.11375 27.7834375 19.11375 27.5625 20.25 C27.09812508 22.52027739 26.58136431 24.75759479 26 27 C25.34 27 24.68 27 24 27 C24.061875 27.763125 24.12375 28.52625 24.1875 29.3125 C24 32 24 32 22.875 33.8125 C20.22464043 35.49106106 18.06753576 35.20450238 15 35 C13.05668016 29.29959514 13.05668016 29.29959514 12.5625 26.6875 C12.376875 26.130625 12.19125 25.57375 12 25 C11.01 24.67 10.02 24.34 9 24 C9 22.02 9 20.04 9 18 C8.34 18 7.68 18 7 18 C6.80664062 17.30132812 6.61328125 16.60265625 6.4140625 15.8828125 C6.15367187 14.97273438 5.89328125 14.06265625 5.625 13.125 C5.36976563 12.22007812 5.11453125 11.31515625 4.8515625 10.3828125 C4.1395685 7.85430274 4.1395685 7.85430274 2 6 C2 5.01 2 4.02 2 3 C1.34 3 0.68 3 0 3 C0 2.01 0 1.02 0 0 Z " fill="#215A96" transform="translate(169,246)"/>
<path d="M0 0 C9.24 0 18.48 0 28 0 C28 2.97 28 5.94 28 9 C25.03 9 22.06 9 19 9 C19 17.91 19 26.82 19 36 C16.03 36 13.06 36 10 36 C9 35 9 35 8.88647461 32.49975586 C8.89171143 31.41573486 8.89694824 30.33171387 8.90234375 29.21484375 C8.90556641 28.04501953 8.90878906 26.87519531 8.91210938 25.66992188 C8.92048828 24.43822266 8.92886719 23.20652344 8.9375 21.9375 C8.94201172 20.70193359 8.94652344 19.46636719 8.95117188 18.19335938 C8.96300392 15.12885883 8.97948827 12.06445279 9 9 C6.03 9 3.06 9 0 9 C0 6.03 0 3.06 0 0 Z " fill="#6C83A7" transform="translate(73,246)"/>
<path d="M0 0 C3.3 0 6.6 0 10 0 C9.67 9.24 9.34 18.48 9 28 C13.62 28 18.24 28 23 28 C23 30.64 23 33.28 23 36 C15.74 36 8.48 36 1 36 C0.67 24.12 0.34 12.24 0 0 Z " fill="#3E6798" transform="translate(239,246)"/>
<path d="M0 0 C2.97922593 -0.02683987 5.95821295 -0.04676037 8.9375 -0.0625 C9.78763672 -0.07087891 10.63777344 -0.07925781 11.51367188 -0.08789062 C12.32255859 -0.09111328 13.13144531 -0.09433594 13.96484375 -0.09765625 C14.7137085 -0.10289307 15.46257324 -0.10812988 16.23413086 -0.11352539 C18 0 18 0 19 1 C21.32817964 1.36760731 23.6618385 1.70241581 26 2 C26.33 3.32 26.66 4.64 27 6 C25.68 6 24.36 6 23 6 C23 5.34 23 4.68 23 4 C22.01 4 21.02 4 20 4 C19.67 4.99 19.34 5.98 19 7 C13.555 7.495 13.555 7.495 8 8 C7.979375 9.629375 7.95875 11.25875 7.9375 12.9375 C7.92589844 13.85402344 7.91429688 14.77054687 7.90234375 15.71484375 C7.74050951 17.96593327 7.74050951 17.96593327 9 19 C10.68183948 19.23287008 12.3712416 19.41264166 14.0625 19.5625 C14.98160156 19.64628906 15.90070313 19.73007812 16.84765625 19.81640625 C17.91306641 19.90728516 17.91306641 19.90728516 19 20 C18.67 20.66 18.34 21.32 18 22 C15.11788698 22.96070434 13.30149956 23.10581883 10.3125 23.0625 C8.889375 23.041875 7.46625 23.02125 6 23 C6 26.63 6 30.26 6 34 C4.68 34 3.36 34 2 34 C1.96241577 32.73555054 1.96241577 32.73555054 1.92407227 31.44555664 C1.82911845 28.32758326 1.72987552 25.20978497 1.62768555 22.09204102 C1.58428777 20.74085853 1.5426163 19.38961947 1.50268555 18.03833008 C1.44510048 16.09963299 1.38085702 14.16113724 1.31640625 12.22265625 C1.27974854 11.05484619 1.24309082 9.88703613 1.20532227 8.68383789 C1.29923812 6.08220205 1.29923812 6.08220205 0 5 C-0.04063832 3.33382885 -0.042721 1.66611905 0 0 Z " fill="#0D4C8E" transform="translate(105,246)"/>
<path d="M0 0 C2.475 0.495 2.475 0.495 5 1 C5.30292969 2.134375 5.60585937 3.26875 5.91796875 4.4375 C9.76644556 18.45273239 14.18644408 27.86652755 27 35.875 C42.96596662 41.86223748 58.9388926 38.94916362 75 35 C75.33 35.66 75.66 36.32 76 37 C70.56479918 39.31499294 65.90164234 40.41088706 60.00390625 40.7890625 C58.00306021 40.78720705 58.00306021 40.78720705 57 42 C55.59651265 42.09860131 54.18819523 42.13078937 52.78125 42.1328125 C51.50701172 42.13474609 51.50701172 42.13474609 50.20703125 42.13671875 C48.86705078 42.13091797 48.86705078 42.13091797 47.5 42.125 C46.60667969 42.12886719 45.71335938 42.13273437 44.79296875 42.13671875 C43.94347656 42.13542969 43.09398437 42.13414062 42.21875 42.1328125 C41.43435547 42.13168457 40.64996094 42.13055664 39.84179688 42.12939453 C38 42 38 42 37 41 C35.42393803 40.65268264 33.83862922 40.34685523 32.25 40.0625 C28.62918882 39.37257466 25.35956176 38.56779549 22 37 C22 36.34 22 35.68 22 35 C21.01 35 20.02 35 19 35 C19 34.34 19 33.68 19 33 C17.68 33 16.36 33 15 33 C15 32.34 15 31.68 15 31 C14.34 31 13.68 31 13 31 C13 30.01 13 29.02 13 28 C12.34 28 11.68 28 11 28 C11 27.34 11 26.68 11 26 C10.01 25.67 9.02 25.34 8 25 C8 24.01 8 23.02 8 22 C7.34 22 6.68 22 6 22 C1.21912121 15.42629167 0.6005535 7.85460762 0 0 Z " fill="#FEFAF7" transform="translate(91,139)"/>
<path d="M0 0 C0.969375 0.165 1.93875 0.33 2.9375 0.5 C5.28520643 4.02155964 5.31419614 6.00771843 5.5625 10.1875 C5.63726562 11.36699219 5.71203125 12.54648437 5.7890625 13.76171875 C5.83804688 14.66535156 5.88703125 15.56898438 5.9375 16.5 C6.5975 16.5 7.2575 16.5 7.9375 16.5 C7.9375 17.49 7.9375 18.48 7.9375 19.5 C7.2775 19.5 6.6175 19.5 5.9375 19.5 C0.9375 14.02380952 0.9375 14.02380952 0.9375 11.5 C-2.31233135 12.58784968 -2.31233135 12.58784968 -5.0625 14.5 C-4.77575582 16.50720923 -4.44383299 18.5085944 -4.0625 20.5 C-1.7525 20.83 0.5575 21.16 2.9375 21.5 C2.9375 22.16 2.9375 22.82 2.9375 23.5 C-2.0125 23.995 -2.0125 23.995 -7.0625 24.5 C-8.0525 27.14 -9.0425 29.78 -10.0625 32.5 C-12.3725 32.5 -14.6825 32.5 -17.0625 32.5 C-17.0625 31.51 -17.0625 30.52 -17.0625 29.5 C-16.4025 29.5 -15.7425 29.5 -15.0625 29.5 C-14.87494141 28.66662109 -14.87494141 28.66662109 -14.68359375 27.81640625 C-14.00019287 25.26762183 -13.10429635 22.88758859 -12.125 20.4375 C-11.78597656 19.58027344 -11.44695312 18.72304688 -11.09765625 17.83984375 C-10.0625 15.5 -10.0625 15.5 -8.0625 12.5 C-7.753125 11.38625 -7.44375 10.2725 -7.125 9.125 C-4.67410384 0.76311899 -4.67410384 0.76311899 0 0 Z " fill="#195493" transform="translate(155.0625,248.5)"/>
<path d="M0 0 C0.99 0 1.98 0 3 0 C3 0.66 3 1.32 3 2 C4.32 2 5.64 2 7 2 C7 6.29 7 10.58 7 15 C0.92268229 17.29587558 -4.62598653 17.31074241 -11 16 C-13 14 -13 14 -13.23046875 11.65234375 C-13.21628906 10.75644531 -13.20210938 9.86054688 -13.1875 8.9375 C-13.18105469 8.03902344 -13.17460938 7.14054687 -13.16796875 6.21484375 C-13 4 -13 4 -12 3 C-9.15912448 2.71681146 -6.31834785 2.55149787 -3.46875 2.37890625 C-2.6540625 2.25386719 -1.839375 2.12882813 -1 2 C-0.67 1.34 -0.34 0.68 0 0 Z " fill="#1A5693" transform="translate(125,250)"/>
<path d="M0 0 C7.92 0 15.84 0 24 0 C24 1.65 24 3.3 24 5 C20.7 5.33 17.4 5.66 14 6 C13.67 14.58 13.34 23.16 13 32 C11.68 32 10.36 32 9 32 C9 23.09 9 14.18 9 5 C5.7 5 2.4 5 -1 5 C-0.67 3.35 -0.34 1.7 0 0 Z " fill="#195492" transform="translate(76,248)"/>
<path d="M0 0 C8.91 0 17.82 0 27 0 C26 7 26 7 25 9 C19.72 9 14.44 9 9 9 C9 10.65 9 12.3 9 14 C9.98742187 13.97679687 10.97484375 13.95359375 11.9921875 13.9296875 C13.27351562 13.91164063 14.55484375 13.89359375 15.875 13.875 C17.78925781 13.84019531 17.78925781 13.84019531 19.7421875 13.8046875 C23 14 23 14 25 16 C25 17.98 25 19.96 25 22 C19.72 22 14.44 22 9 22 C9 21.67 9 21.34 9 21 C13.62 21 18.24 21 23 21 C23 19.35 23 17.7 23 16 C17.72 16 12.44 16 7 16 C7 8 7 8 8 7 C10.69654854 6.92680379 13.36691458 6.90757463 16.0625 6.9375 C16.82111328 6.94201172 17.57972656 6.94652344 18.36132812 6.95117188 C20.24091871 6.9629932 22.12046899 6.98092922 24 7 C24 5.35 24 3.7 24 2 C13.11 2.495 13.11 2.495 2 3 C2 13.23 2 23.46 2 34 C9.59 34 17.18 34 25 34 C25.33 33.01 25.66 32.02 26 31 C26 32.32 26 33.64 26 35 C17.75 35 9.5 35 1 35 C0.505 17.675 0.505 17.675 0 0 Z " fill="#446393" transform="translate(208,246)"/>
<path d="M0 0 C0 0.66 0 1.32 0 2 C1.65 2 3.3 2 5 2 C5.495 2.99 5.495 2.99 6 4 C8.01669827 5.13350534 8.01669827 5.13350534 10 6 C6.37121247 7.20959584 4.8456203 6.65839734 1.1875 5.6875 C-0.40771484 5.26597656 -0.40771484 5.26597656 -2.03515625 4.8359375 C-5.05952463 3.98321703 -8.04402625 3.06743497 -11 2 C-11 1.34 -11 0.68 -11 0 C-15.69560343 -0.07466101 -20.39085443 -0.12884101 -25.08691406 -0.16479492 C-26.68137641 -0.17979745 -28.27579808 -0.20020621 -29.87011719 -0.22631836 C-32.17393077 -0.26308134 -34.4771946 -0.27981155 -36.78125 -0.29296875 C-37.48366821 -0.30845261 -38.18608643 -0.32393646 -38.90979004 -0.33988953 C-46.18362658 -0.34231299 -51.84257075 2.17240884 -58 6 C-58.86625 6.33 -59.7325 6.66 -60.625 7 C-63.01314301 7.81425055 -63.01314301 7.81425055 -64.35546875 9.45703125 C-66.35788805 11.3357857 -68.07357622 11.89195798 -70.6875 12.6875 C-71.49574219 12.93886719 -72.30398437 13.19023438 -73.13671875 13.44921875 C-73.75160156 13.63097656 -74.36648437 13.81273438 -75 14 C-74.505 12.515 -74.505 12.515 -74 11 C-73.34 11 -72.68 11 -72 11 C-72 10.34 -72 9.68 -72 9 C-70.68 9 -69.36 9 -68 9 C-68 8.34 -68 7.68 -68 7 C-66.68 7 -65.36 7 -64 7 C-64 6.34 -64 5.68 -64 5 C-63.360625 4.87625 -62.72125 4.7525 -62.0625 4.625 C-61.381875 4.41875 -60.70125 4.2125 -60 4 C-59.67 3.34 -59.34 2.68 -59 2 C-57.68 2 -56.36 2 -55 2 C-55 1.34 -55 0.68 -55 0 C-52.36 0 -49.72 0 -47 0 C-47 -0.66 -47 -1.32 -47 -2 C-32.04087705 -4.7770098 -14.57868727 -4.52720788 0 0 Z " fill="#F58C3E" transform="translate(210,43)"/>
<path d="M0 0 C1.4540625 0.0309375 1.4540625 0.0309375 2.9375 0.0625 C2.9375 2.7025 2.9375 5.3425 2.9375 8.0625 C3.5975 8.0625 4.2575 8.0625 4.9375 8.0625 C4.9375 10.3725 4.9375 12.6825 4.9375 15.0625 C4.2775 14.4025 3.6175 13.7425 2.9375 13.0625 C2.9375 12.0725 2.9375 11.0825 2.9375 10.0625 C2.2775 10.0625 1.6175 10.0625 0.9375 10.0625 C0.9375 8.0825 0.9375 6.1025 0.9375 4.0625 C0.2775 4.0625 -0.3825 4.0625 -1.0625 4.0625 C-1.18625 5.34125 -1.31 6.62 -1.4375 7.9375 C-1.8125 11.8125 -1.8125 11.8125 -4.0625 14.0625 C-4.59484805 15.48116575 -5.06795406 16.92264218 -5.5 18.375 C-6.63271421 21.96288663 -8.05463628 24.86817135 -10.0625 28.0625 C-10.2790625 29.0834375 -10.2790625 29.0834375 -10.5 30.125 C-11.30245092 32.88899762 -12.98018271 34.095867 -15.0625 36.0625 C-15.94720621 37.13792133 -16.82195093 38.22160087 -17.6875 39.3125 C-18.863125 40.67375 -18.863125 40.67375 -20.0625 42.0625 C-20.7225 42.0625 -21.3825 42.0625 -22.0625 42.0625 C-22.0625 41.4025 -22.0625 40.7425 -22.0625 40.0625 C-21.4025 40.0625 -20.7425 40.0625 -20.0625 40.0625 C-19.91941406 39.22332031 -19.91941406 39.22332031 -19.7734375 38.3671875 C-18.89031182 35.50430754 -17.4649712 33.59496099 -15.6875 31.1875 C-11.99542503 26.03523964 -8.99934976 21.4330784 -8.0625 15.0625 C-7.4025 15.0625 -6.7425 15.0625 -6.0625 15.0625 C-5.15525306 11.0446921 -4.7233216 7.04707583 -4.34375 2.953125 C-3.86764353 -0.24736846 -3.347876 0.068324 0 0 Z " fill="#F49C5A" transform="translate(253.0625,85.9375)"/>
<path d="M0 0 C0.87785156 0.14566406 1.75570312 0.29132813 2.66015625 0.44140625 C4.9375 1.4375 4.9375 1.4375 6.06762695 3.68212891 C6.95126487 6.48110099 7.16866351 8.59767415 7.1328125 11.51953125 C7.12314453 12.91655273 7.12314453 12.91655273 7.11328125 14.34179688 C7.09652344 15.30150391 7.07976562 16.26121094 7.0625 17.25 C7.05347656 18.22904297 7.04445312 19.20808594 7.03515625 20.21679688 C7.01167326 22.62380348 6.97580477 25.03068364 6.9375 27.4375 C10.2375 27.4375 13.5375 27.4375 16.9375 27.4375 C16.9375 27.7675 16.9375 28.0975 16.9375 28.4375 C11.9875 28.4375 7.0375 28.4375 1.9375 28.4375 C1.9375 19.5275 1.9375 10.6175 1.9375 1.4375 C-1.3625 1.4375 -4.6625 1.4375 -8.0625 1.4375 C-4.59048932 -0.87717379 -3.93467044 -0.73593983 0 0 Z " fill="#FFFFFF" transform="translate(247.0625,244.5625)"/>
<path d="M0 0 C0.99 0 1.98 0 3 0 C3 0.66 3 1.32 3 2 C4.32 2 5.64 2 7 2 C8.75 3.375 8.75 3.375 10 5 C10 5.66 10 6.32 10 7 C10.99 7 11.98 7 13 7 C13 7.66 13 8.32 13 9 C13.66 9 14.32 9 15 9 C17.625 11.375 17.625 11.375 20 14 C20 14.66 20 15.32 20 16 C20.66 16 21.32 16 22 16 C22 16.99 22 17.98 22 19 C22.66 19 23.32 19 24 19 C24 19.66 24 20.32 24 21 C24.66 21 25.32 21 26 21 C27.68870844 24.57608847 28.1397368 26.25515051 27 30 C26.75121094 30.85078125 26.50242188 31.7015625 26.24609375 32.578125 C25.97925781 33.45984375 25.71242187 34.3415625 25.4375 35.25 C25.16808594 36.14203125 24.89867187 37.0340625 24.62109375 37.953125 C24.41613281 38.62859375 24.21117187 39.3040625 24 40 C23.34 40 22.68 40 22 40 C22 41.32 22 42.64 22 44 C21.34 44 20.68 44 20 44 C19.938125 44.556875 19.87625 45.11375 19.8125 45.6875 C18.66626128 48.94987173 16.50609803 50.68667874 14 53 C15.13273539 48.55619192 16.28317615 44.73563279 19 41 C19.66 41 20.32 41 21 41 C21.12375 40.2575 21.2475 39.515 21.375 38.75 C22 36 22 36 23.0625 34.1875 C24.52718083 30.76991141 24.77383915 27.59330529 24 24 C22.33850376 21.29937401 20.26860273 19.19904651 18 17 C17.113125 16.05125 16.22625 15.1025 15.3125 14.125 C13.10849159 11.80891058 13.10849159 11.80891058 10 11 C9.7525 10.401875 9.505 9.80375 9.25 9.1875 C7.83184189 6.70572331 6.91099181 6.247292 4.4375 4.9375 C1 3 1 3 0 0 Z " fill="#F49E5D" transform="translate(220,50)"/>
<path d="M0 0 C0.33 0 0.66 0 1 0 C1 9.9 1 19.8 1 30 C9.25 30 17.5 30 26 30 C26 27.69 26 25.38 26 23 C20.06 23 14.12 23 8 23 C8 21.02 8 19.04 8 17 C8.33 17 8.66 17 9 17 C9 18.65 9 20.3 9 22 C14.94 22 20.88 22 27 22 C27.09765625 29.71484375 27.09765625 29.71484375 27 32 C26 33 26 33 23.49975586 33.11352539 C22.41573486 33.10828857 21.33171387 33.10305176 20.21484375 33.09765625 C19.16159912 33.09515869 18.10835449 33.09266113 17.02319336 33.09008789 C15.67491455 33.08098389 14.32663574 33.07187988 12.9375 33.0625 C8.668125 33.041875 4.39875 33.02125 0 33 C0 22.11 0 11.22 0 0 Z " fill="#B6C1D5" transform="translate(208,251)"/>
<path d="M0 0 C2.97922593 -0.02683987 5.95821295 -0.04676037 8.9375 -0.0625 C9.78763672 -0.07087891 10.63777344 -0.07925781 11.51367188 -0.08789062 C12.32255859 -0.09111328 13.13144531 -0.09433594 13.96484375 -0.09765625 C14.7137085 -0.10289307 15.46257324 -0.10812988 16.23413086 -0.11352539 C18 0 18 0 19 1 C21.32817964 1.36760731 23.6618385 1.70241581 26 2 C26.33 3.32 26.66 4.64 27 6 C25.68 6 24.36 6 23 6 C23 5.34 23 4.68 23 4 C16.4 4 9.8 4 3 4 C3 13.9 3 23.8 3 34 C2.67 34 2.34 34 2 34 C1.96241577 32.73555054 1.96241577 32.73555054 1.92407227 31.44555664 C1.82911845 28.32758326 1.72987552 25.20978497 1.62768555 22.09204102 C1.58428777 20.74085853 1.5426163 19.38961947 1.50268555 18.03833008 C1.44510048 16.09963299 1.38085702 14.16113724 1.31640625 12.22265625 C1.27974854 11.05484619 1.24309082 9.88703613 1.20532227 8.68383789 C1.29923812 6.08220205 1.29923812 6.08220205 0 5 C-0.04063832 3.33382885 -0.042721 1.66611905 0 0 Z " fill="#29588F" transform="translate(105,246)"/>
<path d="M0 0 C1.17382744 3.48043941 0.79571141 5.93457981 0.0625 9.5 C-1.81722085 20.03666655 -0.96986363 29.54919675 1 40 C1.35887456 42.33071281 1.68137143 44.66339049 2 47 C0 44 0 44 -1 40.375 C-1.33 39.26125 -1.66 38.1475 -2 37 C-2.66 36.67 -3.32 36.34 -4 36 C-4 27.09 -4 18.18 -4 9 C-4.66 8.67 -5.32 8.34 -6 8 C-6 6.02 -6 4.04 -6 2 C-5.34 1.67 -4.68 1.34 -4 1 C-3.67 1.66 -3.34 2.32 -3 3 C-2.01 2.01 -1.02 1.02 0 0 Z " fill="#F9CBAA" transform="translate(108,95)"/>
<path d="M0 0 C1.8871875 0.061875 1.8871875 0.061875 3.8125 0.125 C3.8125 2.105 3.8125 4.085 3.8125 6.125 C3.1525 6.125 2.4925 6.125 1.8125 6.125 C1.68875 6.805625 1.565 7.48625 1.4375 8.1875 C0.72149123 11.5527412 -0.21695125 14.82513425 -1.1875 18.125 C-1.8475 18.125 -2.5075 18.125 -3.1875 18.125 C-2.87074369 15.45519686 -2.53858484 12.79027786 -2.1875 10.125 C-2.06375 9.17625 -1.94 8.2275 -1.8125 7.25 C-1.1875 5.125 -1.1875 5.125 1.8125 3.125 C0.1625 3.125 -1.4875 3.125 -3.1875 3.125 C-3.1875 4.115 -3.1875 5.105 -3.1875 6.125 C-3.620625 6.5375 -4.05375 6.95 -4.5 7.375 C-8.24422044 11.25789527 -9.58493938 17.07077034 -11.1875 22.125 C-12.8375 22.125 -14.4875 22.125 -16.1875 22.125 C-16.5175 19.815 -16.8475 17.505 -17.1875 15.125 C-16.1975 15.62 -16.1975 15.62 -15.1875 16.125 C-15.1875 17.445 -15.1875 18.765 -15.1875 20.125 C-14.1975 20.125 -13.2075 20.125 -12.1875 20.125 C-12.1875 17.815 -12.1875 15.505 -12.1875 13.125 C-11.5275 12.795 -10.8675 12.465 -10.1875 12.125 C-9.53194881 9.59766765 -9.53194881 9.59766765 -9.1875 7.125 C-8.5275 7.125 -7.8675 7.125 -7.1875 7.125 C-7.249375 6.34125 -7.31125 5.5575 -7.375 4.75 C-7.313125 3.88375 -7.25125 3.0175 -7.1875 2.125 C-4.09861478 0.06574319 -3.47814073 -0.1140374 0 0 Z " fill="#41618F" transform="translate(201.1875,245.875)"/>
<path d="M0 0 C0.99 0 1.98 0 3 0 C1.76834557 3.69496329 0.11775079 4.35395945 -3.2109375 6.1484375 C-5.1138894 7.05420937 -6.91585276 7.66653644 -9 8 C-9 8.66 -9 9.32 -9 10 C-9.6290625 10.17015625 -10.258125 10.3403125 -10.90625 10.515625 C-15.14347977 11.71532258 -19.07747471 12.91982484 -22.9375 15.0625 C-29.30906814 18.43568313 -36.85500406 19.386216 -44 19 C-43.01 17.515 -43.01 17.515 -42 16 C-39.86328125 15.59375 -39.86328125 15.59375 -37.3125 15.5 C-32.56531486 15.1761717 -29.23832976 14.11916488 -25 12 C-25 11.67 -25 11.34 -25 11 C-22.69 11 -20.38 11 -18 11 C-18 10.34 -18 9.68 -18 9 C-16.35 9 -14.7 9 -13 9 C-13 8.34 -13 7.68 -13 7 C-11.68 7 -10.36 7 -9 7 C-9 6.01 -9 5.02 -9 4 C-7.35 4 -5.7 4 -4 4 C-4 3.34 -4 2.68 -4 2 C-2.68 2 -1.36 2 0 2 C0 1.34 0 0.68 0 0 Z " fill="#F69E60" transform="translate(191,163)"/>
<path d="M0 0 C0.70125 -0.02578125 1.4025 -0.0515625 2.125 -0.078125 C2.74375 0.03015625 3.3625 0.1384375 4 0.25 C6 3.25 6 3.25 5.8125 6.3125 C5 9.25 5 9.25 2 11.25 C-1.5625 11.0625 -1.5625 11.0625 -5 10.25 C-7 7.25 -7 7.25 -6.75 4.125 C-6.37875 2.701875 -6.37875 2.701875 -6 1.25 C-3.78704384 0.14352192 -2.45327301 0.05411632 0 0 Z " fill="#FCFCFC" transform="translate(78,95.75)"/>
<path d="M0 0 C2 2.125 2 2.125 3 5 C2.1875 8.3125 2.1875 8.3125 1 11 C-1.31 11.33 -3.62 11.66 -6 12 C-7.5625 10.4375 -7.5625 10.4375 -9 8 C-8.8125 4.3125 -8.8125 4.3125 -8 1 C-5.13879744 -0.43060128 -3.15989415 -0.38692581 0 0 Z " fill="#FDFDFD" transform="translate(98,73)"/>
<path d="M0 0 C1.60332791 -0.08121924 3.20784026 -0.13929134 4.8125 -0.1875 C6.15248047 -0.23970703 6.15248047 -0.23970703 7.51953125 -0.29296875 C10 0 10 0 11.8125 1.3125 C13.58043356 3.82482663 13.19885058 6.0172413 13 9 C13.66 9 14.32 9 15 9 C15 10.98 15 12.96 15 15 C14.67 13.68 14.34 12.36 14 11 C13.01 11 12.02 11 11 11 C11 9.68 11 8.36 11 7 C10.34 7 9.68 7 9 7 C9 6.01 9 5.02 9 4 C8.01 4 7.02 4 6 4 C6 5.98 6 7.96 6 10 C6.66 10 7.32 10 8 10 C8.12375 10.94875 8.2475 11.8975 8.375 12.875 C8.71687177 16.08667191 8.71687177 16.08667191 11 18 C11.125 21.625 11.125 21.625 11 25 C10.34 24.67 9.68 24.34 9 24 C9 22.02 9 20.04 9 18 C8.34 18 7.68 18 7 18 C6.80664062 17.30132812 6.61328125 16.60265625 6.4140625 15.8828125 C6.15367187 14.97273438 5.89328125 14.06265625 5.625 13.125 C5.36976563 12.22007812 5.11453125 11.31515625 4.8515625 10.3828125 C4.1395685 7.85430274 4.1395685 7.85430274 2 6 C2 5.01 2 4.02 2 3 C1.34 3 0.68 3 0 3 C0 2.01 0 1.02 0 0 Z " fill="#4B6B95" transform="translate(169,246)"/>
<path d="M0 0 C0.8146875 0.00257813 1.629375 0.00515625 2.46875 0.0078125 C3.2834375 0.00523437 4.098125 0.00265625 4.9375 0 C6.96875 0.1328125 6.96875 0.1328125 7.96875 1.1328125 C8.15625 4.5703125 8.15625 4.5703125 7.96875 8.1328125 C5.96875 10.1328125 5.96875 10.1328125 3.8046875 10.328125 C2.58652344 10.29332031 2.58652344 10.29332031 1.34375 10.2578125 C0.52648437 10.23976563 -0.29078125 10.22171875 -1.1328125 10.203125 C-1.75929688 10.17992187 -2.38578125 10.15671875 -3.03125 10.1328125 C-3.05814216 8.65374358 -3.07759621 7.17453767 -3.09375 5.6953125 C-3.10535156 4.87160156 -3.11695312 4.04789062 -3.12890625 3.19921875 C-2.99750338 0.41873396 -2.77471038 0.18142337 0 0 Z " fill="#F0F3F7" transform="translate(117.03125,253.8671875)"/>
<path d="M0 0 C6.14962931 9.22444396 5.11449447 24.14765655 3.39453125 34.72265625 C2.36814507 39.01055386 1.45764979 42.31352531 -1 46 C-1 43.69 -1 41.38 -1 39 C-0.34 39 0.32 39 1 39 C0.67 26.13 0.34 13.26 0 0 Z " fill="#F88A37" transform="translate(255,96)"/>
<path d="M0 0 C0.66 0 1.32 0 2 0 C2.71555057 5.43818436 0.79109665 8.86512107 -1.6875 13.51953125 C-3.32406159 16.61243783 -4.66492032 19.76770182 -6 23 C-6.66 23 -7.32 23 -8 23 C-8 23.99 -8 24.98 -8 26 C-4.04 25.505 -4.04 25.505 0 25 C0 25.66 0 26.32 0 27 C-3.3 27 -6.6 27 -10 27 C-10 27.66 -10 28.32 -10 29 C-11.32 29 -12.64 29 -14 29 C-14 28.34 -14 27.68 -14 27 C-16.31 27 -18.62 27 -21 27 C-20.67 26.34 -20.34 25.68 -20 25 C-17.03 25.33 -14.06 25.66 -11 26 C-10.9175 25.2575 -10.835 24.515 -10.75 23.75 C-10 21 -10 21 -8 19.0625 C-5.4777198 16.46139855 -5.32196335 14.54159687 -5 11 C-4.34 11 -3.68 11 -3 11 C-2.01 7.37 -1.02 3.74 0 0 Z " fill="#6C8AA9" transform="translate(146,255)"/>
<path d="M0 0 C2.475 0.495 2.475 0.495 5 1 C4.01 1.33 3.02 1.66 2 2 C2.02931727 12.20240896 3.72483077 20.24379127 7.625 29.63671875 C8.64476537 32.13108803 9.46841471 34.37529762 10 37 C10.66 37 11.32 37 12 37 C13.485 40.465 13.485 40.465 15 44 C14.34 44 13.68 44 13 44 C12.505 42.515 12.505 42.515 12 41 C10.68799596 39.64567325 9.35368596 38.31266518 8 37 C6 34 6 34 6 30 C5.01 30 4.02 30 3 30 C3 27.69 3 25.38 3 23 C2.34 23 1.68 23 1 23 C0.67 15.41 0.34 7.82 0 0 Z " fill="#F6B17B" transform="translate(87,139)"/>
<path d="M0 0 C0.66 0 1.32 0 2 0 C2.02465746 4.1117256 2.04283959 8.22342278 2.05493164 12.33520508 C2.0599708 13.73495228 2.06680216 15.1346942 2.07543945 16.53442383 C2.0875232 18.54245777 2.09269807 20.55052957 2.09765625 22.55859375 C2.10289307 23.76829834 2.10812988 24.97800293 2.11352539 26.22436523 C2 29 2 29 1 30 C0.7834375 31.546875 0.7834375 31.546875 0.5625 33.125 C0.0082083 36.94345392 -0.87414012 40.32219105 -2 44 C-2.66 44 -3.32 44 -4 44 C-4.12375 44.7425 -4.2475 45.485 -4.375 46.25 C-4.95486701 48.80141485 -5.73708739 50.7267573 -7 53 C-7.66 52.67 -8.32 52.34 -9 52 C-8.690625 51.484375 -8.38125 50.96875 -8.0625 50.4375 C-6.70940713 47.33334577 -6.38640576 44.34884993 -6 41 C-5.34 41 -4.68 41 -4 41 C0.17822307 27.27155277 0.46890277 14.28169637 0 0 Z " fill="#F8C6A3" transform="translate(258,103)"/>
<path d="M0 0 C5.94 0 11.88 0 18 0 C18 0.33 18 0.66 18 1 C12.72 1 7.44 1 2 1 C2 2.65 2 4.3 2 6 C2.98742187 5.97679687 3.97484375 5.95359375 4.9921875 5.9296875 C6.27351562 5.91164063 7.55484375 5.89359375 8.875 5.875 C10.78925781 5.84019531 10.78925781 5.84019531 12.7421875 5.8046875 C16 6 16 6 18 8 C18 9.98 18 11.96 18 14 C12.72 14 7.44 14 2 14 C2 13.67 2 13.34 2 13 C6.62 13 11.24 13 16 13 C16 11.35 16 9.7 16 8 C10.72 8 5.44 8 0 8 C0 5.36 0 2.72 0 0 Z " fill="#8FA4BE" transform="translate(215,254)"/>
<path d="M0 0 C0 0.66 0 1.32 0 2 C0.99 2.33 1.98 2.66 3 3 C3 3.66 3 4.32 3 5 C3.66 5 4.32 5 5 5 C6.26953125 6.29296875 6.26953125 6.29296875 7.8125 8.1875 C13.15418024 14.49522879 19.12052783 20.20009963 25 26 C24.67 26.66 24.34 27.32 24 28 C23.37432129 27.36908447 22.74864258 26.73816895 22.10400391 26.08813477 C19.78390381 23.75100365 17.46157708 21.41613222 15.13769531 19.08276367 C14.13190797 18.07194415 13.12701952 17.06022938 12.12304688 16.04760742 C10.68073517 14.59318144 9.23523328 13.14199385 7.7890625 11.69140625 C6.48509521 10.37958374 6.48509521 10.37958374 5.15478516 9.04125977 C3.17190998 6.96493227 3.17190998 6.96493227 1 6 C1 5.34 1 4.68 1 4 C0.34 4 -0.32 4 -1 4 C-1 3.01 -1 2.02 -1 1 C-7.27 1 -13.54 1 -20 1 C-20 0.67 -20 0.34 -20 0 C-4.57142857 -2.28571429 -4.57142857 -2.28571429 0 0 Z " fill="#F6B581" transform="translate(156,197)"/>
<path d="M0 0 C6.6 0 13.2 0 20 0 C20 0.99 20 1.98 20 3 C11.585 3.495 11.585 3.495 3 4 C2.67 6.31 2.34 8.62 2 11 C1.34 11.66 0.68 12.32 0 13 C0 8.71 0 4.42 0 0 Z " fill="#175295" transform="translate(211,250)"/>
<path d="M0 0 C0.99 0.33 1.98 0.66 3 1 C1.03003147 3.55366291 -0.93530394 5.93710105 -3.25 8.1875 C-9.82759018 14.91458086 -14.73524799 21.77741541 -18.67578125 30.3359375 C-19.90864071 32.81620344 -21.26391244 34.851528 -23 37 C-23 35.35 -23 33.7 -23 32 C-22.34 32 -21.68 32 -21 32 C-20.87625 31.443125 -20.7525 30.88625 -20.625 30.3125 C-19.94023145 27.77885636 -19.00866237 25.42078968 -18 23 C-17.34 23 -16.68 23 -16 23 C-15.855625 22.4225 -15.71125 21.845 -15.5625 21.25 C-15.04166667 19.16666667 -14.52083333 17.08333333 -14 15 C-13.34 15 -12.68 15 -12 15 C-11.67 14.01 -11.34 13.02 -11 12 C-10.34 12 -9.68 12 -9 12 C-9 11.01 -9 10.02 -9 9 C-8.34 9 -7.68 9 -7 9 C-7 8.34 -7 7.68 -7 7 C-5.35 6.34 -3.7 5.68 -2 5 C-2 4.01 -2 3.02 -2 2 C-1.34 2 -0.68 2 0 2 C0 1.34 0 0.68 0 0 Z " fill="#F2A66E" transform="translate(132,57)"/>
<path d="M0 0 C0 0.33 0 0.66 0 1 C-0.7734375 1.10957031 -1.546875 1.21914063 -2.34375 1.33203125 C-10.81268175 2.62123745 -17.66383786 4.43968299 -25 9 C-25.86625 9.33 -26.7325 9.66 -27.625 10 C-30.01314301 10.81425055 -30.01314301 10.81425055 -31.35546875 12.45703125 C-33.35788805 14.3357857 -35.07357622 14.89195798 -37.6875 15.6875 C-38.49574219 15.93886719 -39.30398437 16.19023438 -40.13671875 16.44921875 C-40.75160156 16.63097656 -41.36648437 16.81273438 -42 17 C-41.505 15.515 -41.505 15.515 -41 14 C-40.34 14 -39.68 14 -39 14 C-39 13.34 -39 12.68 -39 12 C-37.68 12 -36.36 12 -35 12 C-35 11.34 -35 10.68 -35 10 C-33.68 10 -32.36 10 -31 10 C-31 9.34 -31 8.68 -31 8 C-30.360625 7.87625 -29.72125 7.7525 -29.0625 7.625 C-28.381875 7.41875 -27.70125 7.2125 -27 7 C-26.67 6.34 -26.34 5.68 -26 5 C-24.68 5 -23.36 5 -22 5 C-22 4.34 -22 3.68 -22 3 C-19.36 3 -16.72 3 -14 3 C-14 2.34 -14 1.68 -14 1 C-9.23692563 0.04738513 -4.8333472 -0.08333357 0 0 Z " fill="#F39F5F" transform="translate(177,40)"/>
<path d="M0 0 C1.67642578 0.00290039 1.67642578 0.00290039 3.38671875 0.00585938 C4.54042969 0.01810547 5.69414062 0.03035156 6.8828125 0.04296875 C8.02878906 0.04361328 9.17476562 0.04425781 10.35546875 0.04492188 C16.32848732 0.07585235 22.1026328 0.32365369 28.0078125 1.23046875 C28.0078125 1.56046875 28.0078125 1.89046875 28.0078125 2.23046875 C27.23066895 2.22523193 26.45352539 2.21999512 25.65283203 2.21459961 C22.14616701 2.19386719 18.63951487 2.18082054 15.1328125 2.16796875 C13.90949219 2.15958984 12.68617188 2.15121094 11.42578125 2.14257812 C10.25917969 2.13935547 9.09257812 2.13613281 7.890625 2.1328125 C6.81184082 2.12757568 5.73305664 2.12233887 4.62158203 2.11694336 C2.02549064 2.05163769 2.02549064 2.05163769 0.0078125 3.23046875 C-1.36427365 3.38418795 -2.74019862 3.50471347 -4.1171875 3.60546875 C-10.13099283 4.22325935 -15.03050555 6.21330033 -20.3671875 8.98046875 C-21.6665625 9.59921875 -21.6665625 9.59921875 -22.9921875 10.23046875 C-23.6521875 9.90046875 -24.3121875 9.57046875 -24.9921875 9.23046875 C-22.71524033 6.95352158 -20.98069319 6.38511868 -17.9921875 5.23046875 C-17.0228125 4.73546875 -16.0534375 4.24046875 -15.0546875 3.73046875 C-9.97927812 1.24455395 -5.66537964 -0.02311845 0 0 Z " fill="#F77E1E" transform="translate(170.9921875,41.76953125)"/>
<path d="M0 0 C6.0546875 -0.1953125 6.0546875 -0.1953125 8 0 C10 2 10 2 10.5 4.0625 C10.665 4.701875 10.83 5.34125 11 6 C11.66 6.33 12.32 6.66 13 7 C13 8.98 13 10.96 13 13 C13.66 13 14.32 13 15 13 C15 14.65 15 16.3 15 18 C11.57228865 14.0826156 7 8.47848189 7 3 C4.0957107 3.10792821 4.0957107 3.10792821 1 4 C-0.84434349 6.46115547 -0.84434349 6.46115547 -2 9 C-2.33 9 -2.66 9 -3 9 C-3 7.35 -3 5.7 -3 4 C-2.34 4 -1.68 4 -1 4 C-0.67 2.68 -0.34 1.36 0 0 Z " fill="#4D678D" transform="translate(151,246)"/>
<path d="M0 0 C0.99 0 1.98 0 3 0 C3.22786458 2.05078125 3.45572917 4.1015625 3.68359375 6.15234375 C3.81886614 8.01140229 3.81886614 8.01140229 5 9 C5.12375 10.2375 5.2475 11.475 5.375 12.75 C5.77824535 16.50018177 6.94102776 18.81795199 9 22 C8.67 22.66 8.34 23.32 8 24 C4.125 18.375 4.125 18.375 3 15 C2.34 15.66 1.68 16.32 1 17 C-0.53266582 13.93466836 -0.10276471 10.73245728 -0.0625 7.375 C-0.05798828 6.66859375 -0.05347656 5.9621875 -0.04882812 5.234375 C-0.03703875 3.48954725 -0.01910324 1.744763 0 0 Z " fill="#F69045" transform="translate(89,141)"/>
<path d="M0 0 C2 2.0625 2 2.0625 3 4 C1.02 3.67 -0.96 3.34 -3 3 C-3 2.34 -3 1.68 -3 1 C-7.25025618 1.13890602 -11.50012842 1.28731994 -15.75 1.4375 C-16.9565625 1.47681641 -18.163125 1.51613281 -19.40625 1.55664062 C-20.56640625 1.59853516 -21.7265625 1.64042969 -22.921875 1.68359375 C-23.99018555 1.72025146 -25.05849609 1.75690918 -26.15917969 1.79467773 C-28.58311152 1.96986909 -30.67886712 2.31198487 -33 3 C-33 2.34 -33 1.68 -33 1 C-22.87339479 -1.89331577 -10.31938434 -2.42809043 0 0 Z " fill="#F7A467" transform="translate(199,73)"/>
<path d="M0 0 C0.66 0 1.32 0 2 0 C1.01 2.97 0.02 5.94 -1 9 C-1.66 9 -2.32 9 -3 9 C-3.226875 9.556875 -3.45375 10.11375 -3.6875 10.6875 C-6.91886936 16.38086507 -11.09310825 18.79939327 -17 21 C-17 19 -17 19 -14.625 16.375 C-12 14 -12 14 -10 14 C-10 13.34 -10 12.68 -10 12 C-7.625 9.375 -7.625 9.375 -5 7 C-4.34 7 -3.68 7 -3 7 C-2.87625 6.401875 -2.7525 5.80375 -2.625 5.1875 C-2 3 -2 3 0 0 Z " fill="#F3A263" transform="translate(229,128)"/>
<path d="M0 0 C1.23556641 0.01740234 1.23556641 0.01740234 2.49609375 0.03515625 C3.32238281 0.04417969 4.14867188 0.05320313 5 0.0625 C5.63808594 0.07410156 6.27617188 0.08570313 6.93359375 0.09765625 C6.93359375 0.42765625 6.93359375 0.75765625 6.93359375 1.09765625 C4.62359375 1.42765625 2.31359375 1.75765625 -0.06640625 2.09765625 C-0.39640625 5.06765625 -0.72640625 8.03765625 -1.06640625 11.09765625 C3.38859375 10.60265625 3.38859375 10.60265625 7.93359375 10.09765625 C8.59359375 7.78765625 9.25359375 5.47765625 9.93359375 3.09765625 C10.26359375 3.09765625 10.59359375 3.09765625 10.93359375 3.09765625 C11.18359375 9.72265625 11.18359375 9.72265625 8.93359375 13.09765625 C6.62109375 13.4609375 6.62109375 13.4609375 3.93359375 13.41015625 C3.04671875 13.40628906 2.15984375 13.40242188 1.24609375 13.3984375 C-1.06640625 13.09765625 -1.06640625 13.09765625 -3.06640625 11.09765625 C-3.296875 8.75 -3.296875 8.75 -3.25390625 6.03515625 C-3.24746094 5.13667969 -3.24101563 4.23820312 -3.234375 3.3125 C-3.01533115 0.42417766 -2.89648288 0.13688482 0 0 Z " fill="#6286AD" transform="translate(115.06640625,252.90234375)"/>
<path d="M0 0 C7.92 0 15.84 0 24 0 C24 1.65 24 3.3 24 5 C23.34 5 22.68 5 22 5 C22 4.01 22 3.02 22 2 C14.74 2 7.48 2 0 2 C-0.33 2.99 -0.66 3.98 -1 5 C-0.67 3.35 -0.34 1.7 0 0 Z " fill="#244F85" transform="translate(76,248)"/>
<path d="M0 0 C-0.33 1.98 -0.66 3.96 -1 6 C-7.27 6 -13.54 6 -20 6 C-20 5.67 -20 5.34 -20 5 C-14.39 5 -8.78 5 -3 5 C-3 4.34 -3 3.68 -3 3 C-6.96 3 -10.92 3 -15 3 C-15 2.34 -15 1.68 -15 1 C-13.06263299 0.83179449 -11.12510094 0.66548905 -9.1875 0.5 C-7.56908203 0.36078125 -7.56908203 0.36078125 -5.91796875 0.21875 C-3 0 -3 0 0 0 Z " fill="#1D4D8D" transform="translate(234,274)"/>
<path d="M0 0 C0.66 0 1.32 0 2 0 C1.8125 1.8125 1.8125 1.8125 1 4 C-1.375 5.5625 -1.375 5.5625 -4 7 C-4.556875 7.556875 -5.11375 8.11375 -5.6875 8.6875 C-6.120625 9.120625 -6.55375 9.55375 -7 10 C-7.66 10 -8.32 10 -9 10 C-9.33 10.99 -9.66 11.98 -10 13 C-11.98 13.33 -13.96 13.66 -16 14 C-16 13.01 -16 12.02 -16 11 C-15.01 11 -14.02 11 -13 11 C-13 10.34 -13 9.68 -13 9 C-11.68 9 -10.36 9 -9 9 C-9 8.34 -9 7.68 -9 7 C-7.35 6.34 -5.7 5.68 -4 5 C-4 4.01 -4 3.02 -4 2 C-2.68 2 -1.36 2 0 2 C0 1.34 0 0.68 0 0 Z " fill="#F3A566" transform="translate(210,149)"/>
<path d="M0 0 C2.31 0 4.62 0 7 0 C7 1.65 7 3.3 7 5 C6.34 5 5.68 5 5 5 C5 4.34 5 3.68 5 3 C4.34 3 3.68 3 3 3 C3 11.58 3 20.16 3 29 C2.67 29 2.34 29 2 29 C1.97494385 28.29915283 1.9498877 27.59830566 1.92407227 26.8762207 C1.80773455 23.68814512 1.68517956 20.50033758 1.5625 17.3125 C1.52318359 16.20970703 1.48386719 15.10691406 1.44335938 13.97070312 C1.40146484 12.90400391 1.35957031 11.83730469 1.31640625 10.73828125 C1.27974854 9.75899658 1.24309082 8.77971191 1.20532227 7.77075195 C1.00780667 5.10534823 0.58426967 2.60530212 0 0 Z " fill="#1B528C" transform="translate(240,247)"/>
<path d="M0 0 C1.485 0.99 1.485 0.99 3 2 C3 2.99 3 3.98 3 5 C3.66 5 4.32 5 5 5 C5.33 5.99 5.66 6.98 6 8 C6.66 8.33 7.32 8.66 8 9 C8 9.66 8 10.32 8 11 C8.66 11 9.32 11 10 11 C10 11.99 10 12.98 10 14 C10.66 14 11.32 14 12 14 C12 14.66 12 15.32 12 16 C13.32 16 14.64 16 16 16 C16 16.66 16 17.32 16 18 C16.99 18 17.98 18 19 18 C19.33 18.99 19.66 19.98 20 21 C19.01 21 18.02 21 17 21 C17 20.34 17 19.68 17 19 C15.63875 18.9071875 15.63875 18.9071875 14.25 18.8125 C10.11480856 17.77870214 9.35487461 16.49433006 7 13 C6.57589844 12.44699219 6.15179688 11.89398438 5.71484375 11.32421875 C2.95426775 7.69442349 1.19837488 4.46667001 0 0 Z " fill="#F5A871" transform="translate(94,156)"/>
<path d="M0 0 C0.33 0 0.66 0 1 0 C1.33898024 5.53667724 0.356601 9.01488249 -2 14 C-2.68836513 15.99263591 -3.36281399 17.99041337 -4 20 C-5.65 20 -7.3 20 -9 20 C-9.33 17.69 -9.66 15.38 -10 13 C-9.01 13.495 -9.01 13.495 -8 14 C-8 15.32 -8 16.64 -8 18 C-7.01 18 -6.02 18 -5 18 C-5 15.69 -5 13.38 -5 11 C-4.34 10.67 -3.68 10.34 -3 10 C-2.34444881 7.47266765 -2.34444881 7.47266765 -2 5 C-1.34 5 -0.68 5 0 5 C0 3.35 0 1.7 0 0 Z " fill="#8B9BB9" transform="translate(194,248)"/>
<path d="M0 0 C2.97922593 -0.02683987 5.95821295 -0.04676037 8.9375 -0.0625 C9.78763672 -0.07087891 10.63777344 -0.07925781 11.51367188 -0.08789062 C12.32255859 -0.09111328 13.13144531 -0.09433594 13.96484375 -0.09765625 C14.7137085 -0.10289307 15.46257324 -0.10812988 16.23413086 -0.11352539 C18 0 18 0 19 1 C21.32817964 1.36760731 23.6618385 1.70241581 26 2 C26.33 3.32 26.66 4.64 27 6 C26.34 6 25.68 6 25 6 C24.67 5.34 24.34 4.68 24 4 C22.13190273 3.54853323 22.13190273 3.54853323 19.88671875 3.40234375 C19.05076172 3.32306641 18.21480469 3.24378906 17.35351562 3.16210938 C16.03383789 3.05092773 16.03383789 3.05092773 14.6875 2.9375 C12.96200839 2.78250038 11.23673627 2.6250334 9.51171875 2.46484375 C8.74303467 2.399021 7.97435059 2.33319824 7.18237305 2.26538086 C5.05404242 2.00657167 3.06570649 1.56625662 1 1 C0.67 2.32 0.34 3.64 0 5 C0 3.35 0 1.7 0 0 Z " fill="#4B638D" transform="translate(105,246)"/>
<path d="M0 0 C-0.33 1.65 -0.66 3.3 -1 5 C-1.33 4.01 -1.66 3.02 -2 2 C-8.6 2 -15.2 2 -22 2 C-22.33 2.66 -22.66 3.32 -23 4 C-23 3.01 -23 2.02 -23 1 C-19.606458 -0.696771 -15.80873843 -0.42675548 -12.0625 -0.625 C-10.8259668 -0.70234375 -10.8259668 -0.70234375 -9.56445312 -0.78125 C-8.77103516 -0.82507813 -7.97761719 -0.86890625 -7.16015625 -0.9140625 C-6.43449463 -0.9548291 -5.70883301 -0.9955957 -4.96118164 -1.03759766 C-3 -1 -3 -1 0 0 Z " fill="#275188" transform="translate(233,248)"/>
<path d="M0 0 C0.66 0 1.32 0 2 0 C1.34 2.64 0.68 5.28 0 8 C-0.66 8 -1.32 8 -2 8 C-2 9.32 -2 10.64 -2 12 C-2.66 12 -3.32 12 -4 12 C-4.061875 12.556875 -4.12375 13.11375 -4.1875 13.6875 C-5.33373872 16.94987173 -7.49390197 18.68667874 -10 21 C-8.86726461 16.55619192 -7.71682385 12.73563279 -5 9 C-4.34 9 -3.68 9 -3 9 C-2.814375 7.88625 -2.814375 7.88625 -2.625 6.75 C-2.04513299 4.19858515 -1.26291261 2.2732427 0 0 Z " fill="#F8C197" transform="translate(244,82)"/>
<path d="M0 0 C1.24546405 2.49092811 0.7767578 3.41080733 0 6 C2.64 5.67 5.28 5.34 8 5 C8 5.66 8 6.32 8 7 C4.7 7 1.4 7 -2 7 C-2 7.66 -2 8.32 -2 9 C-3.32 9 -4.64 9 -6 9 C-6 8.34 -6 7.68 -6 7 C-8.31 7 -10.62 7 -13 7 C-12.67 6.34 -12.34 5.68 -12 5 C-9.03 5.33 -6.06 5.66 -3 6 C-2.87625 5.195625 -2.7525 4.39125 -2.625 3.5625 C-2.41875 2.716875 -2.2125 1.87125 -2 1 C-1.34 0.67 -0.68 0.34 0 0 Z " fill="#AEB8C9" transform="translate(138,275)"/>
<path d="M0 0 C-0.639375 0.309375 -1.27875 0.61875 -1.9375 0.9375 C-3.93610821 1.8345163 -3.93610821 1.8345163 -5 3 C-7.99018161 3.12667764 -10.94694108 3.18520838 -13.9375 3.1875 C-14.77474609 3.19974609 -15.61199219 3.21199219 -16.47460938 3.22460938 C-17.67633789 3.22750977 -17.67633789 3.22750977 -18.90234375 3.23046875 C-19.63960693 3.23457764 -20.37687012 3.23868652 -21.13647461 3.24291992 C-23 3 -23 3 -25 1 C-22.14596025 0.83087172 -19.29179998 0.66462837 -16.4375 0.5 C-15.23770508 0.42845703 -15.23770508 0.42845703 -14.01367188 0.35546875 C-9.33281023 0.08799094 -4.68841621 -0.05034541 0 0 Z " fill="#F87818" transform="translate(153,182)"/>
<path d="M0 0 C1.32 0.33 2.64 0.66 4 1 C4 2.32 4 3.64 4 5 C4.66 5.33 5.32 5.66 6 6 C6 7.32 6 8.64 6 10 C6.66 10 7.32 10 8 10 C8.12375 10.94875 8.2475 11.8975 8.375 12.875 C8.71687177 16.08667191 8.71687177 16.08667191 11 18 C11.125 21.625 11.125 21.625 11 25 C10.34 24.67 9.68 24.34 9 24 C9 22.02 9 20.04 9 18 C8.34 18 7.68 18 7 18 C6.80664062 17.30132812 6.61328125 16.60265625 6.4140625 15.8828125 C6.15367187 14.97273438 5.89328125 14.06265625 5.625 13.125 C5.36976563 12.22007812 5.11453125 11.31515625 4.8515625 10.3828125 C4.1395685 7.85430274 4.1395685 7.85430274 2 6 C2 5.01 2 4.02 2 3 C1.34 3 0.68 3 0 3 C0 2.01 0 1.02 0 0 Z " fill="#6C86A5" transform="translate(169,246)"/>
<path d="M0 0 C0.99 0.33 1.98 0.66 3 1 C3.0825 2.03125 3.165 3.0625 3.25 4.125 C4.062251 8.32163015 5.52919434 10.57275344 8 14 C8 14.66 8 15.32 8 16 C8.66 16 9.32 16 10 16 C10 16.99 10 17.98 10 19 C10.66 19 11.32 19 12 19 C11.67 19.66 11.34 20.32 11 21 C10.01 20.67 9.02 20.34 8 20 C8 19.34 8 18.68 8 18 C7.34 18 6.68 18 6 18 C5.566875 16.80375 5.13375 15.6075 4.6875 14.375 C3.6937586 11.69663033 2.63592913 9.29882647 1.3125 6.75 C0 4 0 4 0 0 Z " fill="#F5A76B" transform="translate(140,126)"/>
<path d="M0 0 C4.20766632 3.36613306 5.23655723 6.85680661 6 12 C6 13.32 6 14.64 6 16 C7.32 15.34 8.64 14.68 10 14 C9.25 15.9375 9.25 15.9375 8 18 C5.921875 18.62890625 5.921875 18.62890625 4 19 C3.96261719 18.443125 3.92523438 17.88625 3.88671875 17.3125 C3.40315046 11.69931514 2.10491567 7.21653013 0 2 C0 1.34 0 0.68 0 0 Z " fill="#F5BC91" transform="translate(220,94)"/>
<path d="M0 0 C0.66 0 1.32 0 2 0 C3.6875 2.3125 3.6875 2.3125 5 5 C4.67 5.99 4.34 6.98 4 8 C1.69 8 -0.62 8 -3 8 C-3 6.68 -3 5.36 -3 4 C-2.34 4 -1.68 4 -1 4 C-0.67 2.68 -0.34 1.36 0 0 Z " fill="#E2E7F0" transform="translate(154,260)"/>
<path d="M0 0 C1.23556641 0.01740234 1.23556641 0.01740234 2.49609375 0.03515625 C3.32238281 0.04417969 4.14867187 0.05320313 5 0.0625 C5.63808594 0.07410156 6.27617187 0.08570313 6.93359375 0.09765625 C6.29421875 0.40703125 5.65484375 0.71640625 4.99609375 1.03515625 C2.99748554 1.93217255 2.99748554 1.93217255 1.93359375 3.09765625 C-3.68415135 4.40878245 -9.28196898 5.41032854 -15.06640625 5.09765625 C-13.06640625 2.09765625 -13.06640625 2.09765625 -10.71875 1.62109375 C-9.82285156 1.57210937 -8.92695313 1.523125 -8.00390625 1.47265625 C-4.90045551 1.28564774 -2.78063908 0.13141016 0 0 Z " fill="#F7934A" transform="translate(162.06640625,176.90234375)"/>
<path d="M0 0 C1.98 0.99 1.98 0.99 4 2 C4 2.66 4 3.32 4 4 C5.65 4 7.3 4 9 4 C9 4.66 9 5.32 9 6 C9.66 6 10.32 6 11 6 C10.67 7.65 10.34 9.3 10 11 C7.69 11 5.38 11 3 11 C4.32 10.67 5.64 10.34 7 10 C7 9.01 7 8.02 7 7 C6.401875 6.731875 5.80375 6.46375 5.1875 6.1875 C3.00152146 5.00082594 1.58667406 3.90400887 0 2 C0 1.34 0 0.68 0 0 Z " fill="#F4AB72" transform="translate(153,147)"/>
<path d="M0 0 C1.33332095 2.6666419 0.67102033 4.16680303 0 7 C-0.99 7 -1.98 7 -3 7 C-4.03087881 12.28433677 -4.31611358 17.51104648 -4.5625 22.875 C-4.60568359 23.75414063 -4.64886719 24.63328125 -4.69335938 25.5390625 C-4.79869339 27.69255797 -4.89977649 29.84626064 -5 32 C-5.33 32 -5.66 32 -6 32 C-6 24.41 -6 16.82 -6 9 C-5.34 9 -4.68 9 -4 9 C-3.896875 8.443125 -3.79375 7.88625 -3.6875 7.3125 C-2.86866423 4.55823422 -1.54146219 2.41272343 0 0 Z " fill="#F5A567" transform="translate(145,92)"/>
<path d="M0 0 C0.33 0 0.66 0 1 0 C1.8945814 5.44002201 2.55953838 9.88092325 0 15 C-0.99 15.33 -1.98 15.66 -3 16 C-3 17.65 -3 19.3 -3 21 C-2.34 21 -1.68 21 -1 21 C-1.33 21.66 -1.66 22.32 -2 23 C-4 21.25 -4 21.25 -6 19 C-6 17.68 -6 16.36 -6 15 C-4.35 14.34 -2.7 13.68 -1 13 C-0.67 8.71 -0.34 4.42 0 0 Z " fill="#6E8BAC" transform="translate(132,252)"/>
<path d="M0 0 C3.93846154 4.30769231 3.93846154 4.30769231 4.25 7.8125 C4.1675 8.534375 4.085 9.25625 4 10 C7.47548841 9.46022435 7.47548841 9.46022435 11 8 C12.53146378 4.99405579 12.53146378 4.99405579 13 2 C13.66 2 14.32 2 15 2 C14.125 9.875 14.125 9.875 13 11 C11.31391034 11.07205511 9.62499341 11.08386068 7.9375 11.0625 C7.01839844 11.05347656 6.09929687 11.04445313 5.15234375 11.03515625 C4.44207031 11.02355469 3.73179687 11.01195312 3 11 C2.87625 10.195625 2.7525 9.39125 2.625 8.5625 C2.315625 7.2940625 2.315625 7.2940625 2 6 C1.34 5.67 0.68 5.34 0 5 C0 3.35 0 1.7 0 0 Z " fill="#AAB8CA" transform="translate(180,271)"/>
<path d="M0 0 C0.66 0 1.32 0 2 0 C2 1.65 2 3.3 2 5 C2.99 5.33 3.98 5.66 5 6 C5 7.65 5 9.3 5 11 C5.66 11 6.32 11 7 11 C7 13.31 7 15.62 7 18 C4.36 18 1.72 18 -1 18 C-1 17.67 -1 17.34 -1 17 C1.31 17 3.62 17 6 17 C5.67 15.35 5.34 13.7 5 12 C4.34 12 3.68 12 3 12 C1.19682779 8.03302114 0.50797009 4.3177458 0 0 Z " fill="#8CA0BA" transform="translate(166,264)"/>
<path d="M0 0 C1.15985041 3.46321531 0.82260482 5.94508231 0.125 9.5 C-0.9963084 15.65204337 -1.57990075 21.76484269 -2 28 C-2.33 28 -2.66 28 -3 28 C-3.57446809 8.46808511 -3.57446809 8.46808511 0 0 Z " fill="#F5B488" transform="translate(108,95)"/>
<path d="M0 0 C0.98484375 0.02707031 1.9696875 0.05414063 2.984375 0.08203125 C3.73203125 0.11683594 4.4796875 0.15164063 5.25 0.1875 C5.25 1.1775 5.25 2.1675 5.25 3.1875 C0.3 3.1875 -4.65 3.1875 -9.75 3.1875 C-5.5452889 0.03396667 -4.89908143 -0.17496719 0 0 Z " fill="#2B5588" transform="translate(256.75,273.8125)"/>
<path d="M0 0 C1.4540625 0.0309375 1.4540625 0.0309375 2.9375 0.0625 C2.9375 2.7025 2.9375 5.3425 2.9375 8.0625 C3.5975 8.0625 4.2575 8.0625 4.9375 8.0625 C4.9375 10.3725 4.9375 12.6825 4.9375 15.0625 C2.59204672 12.71704672 1.98241112 11.10264162 1.83984375 7.80078125 C1.85144531 7.00027344 1.86304688 6.19976562 1.875 5.375 C1.88402344 4.56675781 1.89304688 3.75851563 1.90234375 2.92578125 C1.91974609 2.00345703 1.91974609 2.00345703 1.9375 1.0625 C0.6175 1.3925 -0.7025 1.7225 -2.0625 2.0625 C-2.3925 4.7025 -2.7225 7.3425 -3.0625 10.0625 C-3.3925 10.0625 -3.7225 10.0625 -4.0625 10.0625 C-4.08939216 8.58343108 -4.10884621 7.10422517 -4.125 5.625 C-4.13660156 4.80128906 -4.14820313 3.97757812 -4.16015625 3.12890625 C-4.00103255 -0.23815127 -3.43619093 0.07012635 0 0 Z " fill="#F0B995" transform="translate(253.0625,85.9375)"/>
<path d="M0 0 C0.66 0.66 1.32 1.32 2 2 C2.33 1.34 2.66 0.68 3 0 C3.66 0.33 4.32 0.66 5 1 C4.01 5.62 3.02 10.24 2 15 C1.67 15 1.34 15 1 15 C1 12.69 1 10.38 1 8 C0.34 7.67 -0.32 7.34 -1 7 C-1.04254356 5.00045254 -1.04080783 2.99958364 -1 1 C-0.67 0.67 -0.34 0.34 0 0 Z " fill="#B8BBC4" transform="translate(103,96)"/>
<path d="M0 0 C1.32 0 2.64 0 4 0 C4 2.97 4 5.94 4 9 C3.67 9 3.34 9 3 9 C3 7.02 3 5.04 3 3 C2.34 3 1.68 3 1 3 C0.896875 4.27875 0.79375 5.5575 0.6875 6.875 C0.51171875 9.0546875 0.51171875 9.0546875 0 11 C-0.99 11.66 -1.98 12.32 -3 13 C-2.69240822 11.02006459 -2.3787932 9.04106401 -2.0625 7.0625 C-1.88847656 5.96035156 -1.71445313 4.85820313 -1.53515625 3.72265625 C-1 1 -1 1 0 0 Z " fill="#ED904E" transform="translate(251,87)"/>
<path d="M0 0 C0.66 0 1.32 0 2 0 C2.66 4.29 3.32 8.58 4 13 C3.01 13.66 2.02 14.32 1 15 C-0.44207941 12.11584117 -0.09394887 9.58278472 -0.0625 6.375 C-0.05347656 5.18648437 -0.04445313 3.99796875 -0.03515625 2.7734375 C-0.02355469 1.85820312 -0.01195313 0.94296875 0 0 Z " fill="#F78229" transform="translate(89,143)"/>
<path d="M0 0 C0.33 0.99 0.66 1.98 1 3 C0.319375 4.0828125 0.319375 4.0828125 -0.375 5.1875 C-2.09997901 8.17304059 -2.43957245 10.52791889 -2.75 13.9296875 C-3.1306829 17.08221776 -4.054217 19.9734944 -5 23 C-5.33 23 -5.66 23 -6 23 C-6.47347788 14.31957222 -4.10716909 7.62759974 0 0 Z " fill="#F98B32" transform="translate(114,84)"/>
<path d="M0 0 C0 0.99 0 1.98 0 3 C-0.88171875 3.37125 -0.88171875 3.37125 -1.78125 3.75 C-4.3262446 5.18379977 -5.66914225 6.73639406 -7.5 9 C-9.80257939 11.84682543 -11.60645694 13.57113976 -15 15 C-10.96489361 8.57371945 -6.42628055 4.03510639 0 0 Z " fill="#F97F1A" transform="translate(140,54)"/>
<path d="M0 0 C0.28875 0.639375 0.5775 1.27875 0.875 1.9375 C1.82823451 4.15206079 1.82823451 4.15206079 4 5 C4 6.98 4 8.96 4 11 C4.66 11 5.32 11 6 11 C6 12.65 6 14.3 6 16 C1.28217389 10.33860867 -0.28817083 7.4924415 0 0 Z " fill="#7B94AE" transform="translate(160,248)"/>
<path d="M0 0 C0.33 0 0.66 0 1 0 C1.04241723 2.33294775 1.04092937 4.66702567 1 7 C0.67 7.33 0.34 7.66 0 8 C-0.15620555 9.41327947 -0.25056173 10.8335459 -0.31640625 12.25390625 C-0.35830078 13.10791016 -0.40019531 13.96191406 -0.44335938 14.84179688 C-0.48267578 15.73962891 -0.52199219 16.63746094 -0.5625 17.5625 C-0.60568359 18.46419922 -0.64886719 19.36589844 -0.69335938 20.29492188 C-0.79978142 22.52978485 -0.90179988 24.76476308 -1 27 C-1.33 27 -1.66 27 -2 27 C-2.05845196 23.62507371 -2.09374742 20.25027913 -2.125 16.875 C-2.14175781 15.92367187 -2.15851563 14.97234375 -2.17578125 13.9921875 C-2.21104528 8.91416745 -2.03333617 4.75512475 0 0 Z " fill="#F7D3B9" transform="translate(142,99)"/>
<path d="M0 0 C2.375 0.25 2.375 0.25 5 1 C6.0625 2.9375 6.0625 2.9375 7 5 C7.680625 5.28875 8.36125 5.5775 9.0625 5.875 C9.701875 6.24625 10.34125 6.6175 11 7 C11.75 10.125 11.75 10.125 12 13 C10.5 11.625 10.5 11.625 9 10 C9 9.34 9 8.68 9 8 C8.360625 7.731875 7.72125 7.46375 7.0625 7.1875 C5 6 5 6 4 3 C1.99983534 1.79117904 1.99983534 1.79117904 0 1 C0 0.67 0 0.34 0 0 Z " fill="#F8AC73" transform="translate(208,81)"/>
<path d="M0 0 C0.66 0 1.32 0 2 0 C1.125 6.875 1.125 6.875 0 8 C-2.86267567 8.07325168 -5.700719 8.09238205 -8.5625 8.0625 C-9.36880859 8.05798828 -10.17511719 8.05347656 -11.00585938 8.04882812 C-13.00393756 8.03700518 -15.00197783 8.01906914 -17 8 C-17 7.67 -17 7.34 -17 7 C-11.72 7 -6.44 7 -1 7 C-0.67 4.69 -0.34 2.38 0 0 Z " fill="#6986AB" transform="translate(233,246)"/>
<path d="M0 0 C2.31 0 4.62 0 7 0 C7 0.66 7 1.32 7 2 C8.65 2 10.3 2 12 2 C12.33 2.66 12.66 3.32 13 4 C15.01669827 5.13350534 15.01669827 5.13350534 17 6 C13.37673261 7.2077558 12.35853631 6.54311128 9 5 C9 4.34 9 3.68 9 3 C4.545 2.01 4.545 2.01 0 1 C0 0.67 0 0.34 0 0 Z " fill="#F4A365" transform="translate(203,43)"/>
<path d="M0 0 C2.55859692 1.27929846 2.86148734 2.44271068 4.0625 5 C5.24468524 7.69907724 5.24468524 7.69907724 7 10 C7.04080783 11.99958364 7.04254356 14.00045254 7 16 C6.67 16 6.34 16 6 16 C6 14.35 6 12.7 6 11 C5.34 11 4.68 11 4 11 C4 10.01 4 9.02 4 8 C3.34 8 2.68 8 2 8 C-0.1519437 4.77208445 -0.20086443 3.71599191 0 0 Z " fill="#2E6092" transform="translate(160,255)"/>
<path d="M0 0 C2.31 0 4.62 0 7 0 C7 1.32 7 2.64 7 4 C4.69 4 2.38 4 0 4 C0 2.68 0 1.36 0 0 Z " fill="#3F5369" transform="translate(74,96)"/>
<path d="M0 0 C0.33 0.66 0.66 1.32 1 2 C0.01 2.33 -0.98 2.66 -2 3 C-2.99 4.2684375 -2.99 4.2684375 -4 5.5625 C-4.66 6.366875 -5.32 7.17125 -6 8 C-6.99 8 -7.98 8 -9 8 C-9 5 -9 5 -7.875 3.4375 C-5.42754954 1.56112131 -2.94265576 0.85010055 0 0 Z " fill="#F9D1B2" transform="translate(159,80)"/>
<path d="M0 0 C0.33 0.66 0.66 1.32 1 2 C1.66 2 2.32 2 3 2 C3 2.66 3 3.32 3 4 C2.34 4 1.68 4 1 4 C1 5.32 1 6.64 1 8 C6.01535052 7.67039784 6.01535052 7.67039784 10 5 C9.67 6.32 9.34 7.64 9 9 C6.03 9 3.06 9 0 9 C-0.87890625 2.84765625 -0.87890625 2.84765625 -1 1 C-0.67 0.67 -0.34 0.34 0 0 Z " fill="#39679D" transform="translate(150,260)"/>
<path d="M0 0 C0.99 0 1.98 0 3 0 C2 3 2 3 0.00390625 4.16796875 C-0.80175781 4.50441406 -1.60742188 4.84085938 -2.4375 5.1875 C-3.24058594 5.53167969 -4.04367188 5.87585938 -4.87109375 6.23046875 C-7 7 -7 7 -9 7 C-9 6.01 -9 5.02 -9 4 C-7.35 4 -5.7 4 -4 4 C-4 3.34 -4 2.68 -4 2 C-2.68 2 -1.36 2 0 2 C0 1.34 0 0.68 0 0 Z " fill="#F5A061" transform="translate(191,163)"/>
<path d="M0 0 C1 2 1 2 0.0625 5.125 C-0.288125 6.07375 -0.63875 7.0225 -1 8 C-2.65 8 -4.3 8 -6 8 C-6.33 5.69 -6.66 3.38 -7 1 C-6.01 1.495 -6.01 1.495 -5 2 C-5 3.32 -5 4.64 -5 6 C-4.01 6 -3.02 6 -2 6 C-1.34 4.02 -0.68 2.04 0 0 Z " fill="#6684A7" transform="translate(191,260)"/>
<path d="M0 0 C3.85025879 0.60355408 6.86101159 1.76772603 10.3125 3.5625 C11.19550781 4.01753906 12.07851562 4.47257813 12.98828125 4.94140625 C13.65214844 5.29074219 14.31601563 5.64007813 15 6 C13 7 13 7 10.21484375 6.07421875 C9.13332031 5.61660156 8.05179688 5.15898437 6.9375 4.6875 C5.85339844 4.23761719 4.76929687 3.78773438 3.65234375 3.32421875 C1 2 1 2 0 0 Z " fill="#F89D55" transform="translate(108,188)"/>
<path d="M0 0 C2.475 0.495 2.475 0.495 5 1 C4.01 1.33 3.02 1.66 2 2 C2 6.95 2 11.9 2 17 C1.67 17 1.34 17 1 17 C0.67 11.39 0.34 5.78 0 0 Z " fill="#F3AE7F" transform="translate(87,139)"/>
<path d="M0 0 C0.66 0 1.32 0 2 0 C3.28446919 2.56893838 3.32977144 4.76576337 3.5625 7.625 C3.64628906 8.62789062 3.73007813 9.63078125 3.81640625 10.6640625 C3.87699219 11.43492187 3.93757813 12.20578125 4 13 C3.34 13 2.68 13 2 13 C2 10.69 2 8.38 2 6 C1.34 6 0.68 6 0 6 C0 4.02 0 2.04 0 0 Z " fill="#F8D0B3" transform="translate(88,156)"/>
<path d="M0 0 C1.61080407 3.22160813 0.82657067 5.57563579 0 9 C-2.5625 11.4375 -2.5625 11.4375 -5 13 C-4.34 10.36 -3.68 7.72 -3 5 C-2.34 5 -1.68 5 -1 5 C-0.67 3.35 -0.34 1.7 0 0 Z " fill="#F2B17F" transform="translate(248,96)"/>
<path d="M0 0 C1.66611905 -0.042721 3.33382885 -0.04063832 5 0 C5.33 0.33 5.66 0.66 6 1 C8.32817964 1.36760731 10.6618385 1.70241581 13 2 C13.33 3.32 13.66 4.64 14 6 C13.34 6 12.68 6 12 6 C11.67 5.34 11.34 4.68 11 4 C9.10466658 3.53476937 9.10466658 3.53476937 6.9375 3.375 C5.638125 3.25125 4.33875 3.1275 3 3 C3 2.34 3 1.68 3 1 C2.01 0.67 1.02 0.34 0 0 Z " fill="#5A739B" transform="translate(118,246)"/>
<path d="M0 0 C1.32 0 2.64 0 4 0 C4 1.98 4 3.96 4 6 C2.68 6 1.36 6 0 6 C0 4.02 0 2.04 0 0 Z " fill="#586580" transform="translate(93,73)"/>
<path d="M0 0 C0.33 1.32 0.66 2.64 1 4 C2.65 3.67 4.3 3.34 6 3 C5.67 3.99 5.34 4.98 5 6 C2.69 6 0.38 6 -2 6 C-2 5.01 -2 4.02 -2 3 C-1.34 3 -0.68 3 0 3 C0 2.01 0 1.02 0 0 Z " fill="#395D91" transform="translate(140,275)"/>
<path d="M0 0 C-0.33 1.98 -0.66 3.96 -1 6 C-1.33 4.68 -1.66 3.36 -2 2 C-6.29 2 -10.58 2 -15 2 C-15 1.67 -15 1.34 -15 1 C-13.06263299 0.83179449 -11.12510094 0.66548905 -9.1875 0.5 C-7.56908203 0.36078125 -7.56908203 0.36078125 -5.91796875 0.21875 C-3 0 -3 0 0 0 Z " fill="#2D4A7D" transform="translate(234,274)"/>
<path d="M0 0 C1.12377697 3.30435084 0.89554742 5.0506862 -0.4375 8.25 C-0.72496094 8.95640625 -1.01242188 9.6628125 -1.30859375 10.390625 C-1.53675781 10.92171875 -1.76492187 11.4528125 -2 12 C-2.66 12 -3.32 12 -4 12 C-3.67 9.36 -3.34 6.72 -3 4 C-2.01 3.67 -1.02 3.34 0 3 C0 2.01 0 1.02 0 0 Z " fill="#97ADC3" transform="translate(202,252)"/>
<path d="M0 0 C1.98 0 3.96 0 6 0 C5.2884375 0.61875 5.2884375 0.61875 4.5625 1.25 C2.83733482 3.182185 2.43415125 4.48192275 2 7 C1.34 7 0.68 7 0 7 C0 4.69 0 2.38 0 0 Z " fill="#3F597A" transform="translate(73,246)"/>
<path d="M0 0 C-0.66 0.66 -1.32 1.32 -2 2 C-2.99 2 -3.98 2 -5 2 C-5 2.66 -5 3.32 -5 4 C-6.65 4.33 -8.3 4.66 -10 5 C-9.67 3.68 -9.34 2.36 -9 1 C-2.25 -1.125 -2.25 -1.125 0 0 Z " fill="#F48C3E" transform="translate(187,169)"/>
<path d="M0 0 C2 1.3125 2 1.3125 4 3 C4 3.99 4 4.98 4 6 C1.03 6 -1.94 6 -5 6 C-5 5.67 -5 5.34 -5 5 C-3.02 5 -1.04 5 1 5 C0.67 3.35 0.34 1.7 0 0 Z " fill="#517199" transform="translate(131,275)"/>
<path d="M0 0 C0.33 0 0.66 0 1 0 C1.3125 2.25 1.3125 2.25 1 5 C-1.5 7.3125 -1.5 7.3125 -4 9 C-3.35499066 5.51694958 -1.95865224 2.93797836 0 0 Z " fill="#0C4C8F" transform="translate(128,258)"/>
<path d="M0 0 C2.31 0 4.62 0 7 0 C7 1.65 7 3.3 7 5 C6.67 4.01 6.34 3.02 6 2 C4.02 2.66 2.04 3.32 0 4 C0 2.68 0 1.36 0 0 Z " fill="#324F7B" transform="translate(240,247)"/>
<path d="M0 0 C0.66 0.33 1.32 0.66 2 1 C2 2.65 2 4.3 2 6 C0.02 6 -1.96 6 -4 6 C-3.67 5.34 -3.34 4.68 -3 4 C-2.01 4 -1.02 4 0 4 C0 2.68 0 1.36 0 0 Z " fill="#D5D9E1" transform="translate(173,278)"/>
</svg>
